<svg id="_01_Horsepower" data-name="01 Horsepower" xmlns="http://www.w3.org/2000/svg" viewBox="0 0 64 64"><defs><style>.cls-1{fill:#231f20;}</style></defs><path class="cls-1" d="M52.88,43.54c-1.06-2.83-2.43-3.21-3.89-2.39-2.1,1.19-2.68,1-2.47,3.11s1.32,1.93,1.32,1.93a14.2,14.2,0,0,1-7.45,4.06,3.73,3.73,0,0,0-2.83,3.49s-.22-3.22,2.62-4a4.64,4.64,0,0,0-3.11-4s1.14-1.24,0-4c-.12-.27-.32-.64-.56-1.08a2.93,2.93,0,0,1,1.36,1.24,9.64,9.64,0,0,0-1.09-9.43c-1-1.4-1.67-2.82-1.15-4.52,0,1.7.67,1.62,2.13,2.39C39,31,40,31.5,40.34,32.62c.68,2.08,1.64,1.88,3,2.24s2.12-1.22,2.12-1.22c.54-2-1.13-3.66-1.26-5.85s.61-3.13-.7-5.43a4.35,4.35,0,0,1,.6-4.85c-2.67-.73-2.24,3-6.73,1-3.24-1.4-3.45.64-6.37-.36-3.55-1.22-5.38.67-5.38.67a3.58,3.58,0,0,1,3,.19,4.77,4.77,0,0,0,1.39.56c-3.5-.25-3.74,2.78-5.9,1.56a2.3,2.3,0,0,0,1,1.1,1.18,1.18,0,0,1,.36,1.79,7.3,7.3,0,0,0-2.93-2.34,7.1,7.1,0,0,0-1.22-5c-1.75-2.73-3.9-2.82-3.9-2.82,3.18-.36,4.15-2.83,6.62-4.95s3.78-2,4.86.62c.81,2,1.25,2.3,3.67,1,1.52-.84,1.87-1.33,1.72-3.43C34.12,4.24,31.71,4,26.91,4c-1.77,0-2.48.67-4.51,1.2s-4.94.44-8.57,2.47S12.6,9.09,11.1,14.83a9,9,0,0,0,2.2,9,10.93,10.93,0,0,0,1.11,8.71A11.36,11.36,0,0,0,15.75,42a19.39,19.39,0,0,0-.5,3.51c-.36,5.3,2.08,8.17.85,10.29A14.06,14.06,0,0,0,14.5,60H34.37a10.31,10.31,0,0,0-1.7-3.45c-4-2.12-2.94-6.74-2.94-6.74.53,5.74,3,5.21,7.51,8.13s2.39,1.32,6.45-.62,4.42-6,6.71-8.22S53.94,46.36,52.88,43.54Zm-10.1-19.2,0,2.22L41.33,23.5Zm-11-15.19c.45-.53.32-.67-.34-1.42,1.6.52,2.12,1,.61,2s-1.73.57-1.92,0C30.11,9.75,30.55,10.59,31.76,9.15Zm-7.93,18.2c-1.31,4.13.81,7.38,2.74,10C20.86,32.08,22.12,29.14,23.83,27.35Zm8.25,11.1c-3.79.19-4.92-1.06-5.4-3,2.28,3.75,8.14.27,10.53,4C37.21,39.48,35.6,38.28,32.08,38.45Zm-.93-4.31c4.67.53,5.43,1.89,6.3,3.25-.18-.27-1.59-1.89-5.35-1.91-6.48,0-9.75-5.81-6.57-9.69C24.77,28.36,25.37,33.47,31.15,34.14Zm-2-10.89C27,25.11,26.68,30.3,26.68,30.3,25.53,26.11,26.68,24.52,29.11,23.25ZM27,41.26A6,6,0,0,0,24.3,41a3.77,3.77,0,0,1-3.67-1.49C21.9,40.6,26,39.37,27,41.26ZM21,19.67a15.08,15.08,0,0,0-2.82-4A4.67,4.67,0,0,1,21,19.67ZM20.79,6.29c-3.22,1.07-5.63,2.09-6.89,3.48C14.29,7.43,20.79,6.29,20.79,6.29ZM12.9,11.5a28,28,0,0,1,3.2,2.13A3.71,3.71,0,0,1,12.9,11.5Zm.63,10.77c-.36-4.28,5.16-2.54,5.16-2.54C15.31,19.42,13.84,20.93,13.53,22.27Zm1.87,8A11.78,11.78,0,0,1,17,27.35a6.64,6.64,0,0,1-2.07-5.43,7.14,7.14,0,0,0,2.61,4.9l.16-.14a2.63,2.63,0,0,1,1.62-.45,11.67,11.67,0,0,1,1.34-4.31c-.3,1.33-.95,2.8-.78,4.35a5,5,0,0,1,1.19.35A7.67,7.67,0,0,0,15.4,30.3Zm2,7.61a9.67,9.67,0,0,0,.84-3,8.29,8.29,0,0,1,1-3C18.79,33.58,19.94,35.43,17.38,37.91Zm13,20a7.64,7.64,0,0,0-4.54-2.09c-5.43-.87-8.18-.07-8.84-5.45,1.54,3.82,5.74,3.38,8.93,4.24A6.1,6.1,0,0,1,30.39,57.87ZM28,43.15a6.89,6.89,0,0,0,3.71,4.63S27,47,28,43.15Zm7.85,4.1s-1.48,4.2-4.14,2C32.64,49.56,34.57,48.75,35.82,47.25Zm-3.13,4a8.25,8.25,0,0,0,3.59,4.91S31.5,54.5,32.69,51.23Zm7.73,4.91S46.49,52,49.6,48.48C48.53,50.4,44.94,53.71,40.42,56.14Zm7.32-11.21a2.56,2.56,0,0,1-.27-1.82c.16,1,.67,1.6,2.43.74C49.9,43.85,48.15,45.46,47.74,44.93Z"/></svg>