<svg xmlns="http://www.w3.org/2000/svg" viewBox="0 0 64 64"><defs><style>.cls-1{fill:#231f20;}</style></defs><g id="_02_Gearbox" data-name="02 Gearbox"><ellipse class="cls-1" cx="32" cy="7" rx="8" ry="3"/><path class="cls-1" d="M39.5,20.71C38.14,22.24,35.35,23,32,23s-6.14-.76-7.5-2.29c.82,1.43,2.81,2.82,5.5,4.29a3.52,3.52,0,0,0,2,.35A3.52,3.52,0,0,0,34,25C36.69,23.53,38.68,22.14,39.5,20.71Z"/><path class="cls-1" d="M23.85,19.16a2.75,2.75,0,0,0,1.55,1.75A16.11,16.11,0,0,0,32,22a16.11,16.11,0,0,0,6.6-1.09,2.75,2.75,0,0,0,1.55-1.75A5.34,5.34,0,0,0,40.5,17c0-5,1-6.82.5-9-1.38,1.75-6.24,3-9,3s-7.62-1.25-9-3c-.52,2.18.5,4,.5,9A5.34,5.34,0,0,0,23.85,19.16ZM32,16c6,0,7.5-2,7.5-2-1,2-3.91,3-7.5,3s-6.5-1-7.5-3C24.5,14,26,16,32,16Z"/><polygon class="cls-1" points="29.65 37 29.58 35.87 29.33 37 29.65 37"/><polygon class="cls-1" points="34.42 35.87 34.35 37 34.67 37 34.42 35.87"/><path class="cls-1" d="M34.81,29.06,34.53,34h.82a1,1,0,0,1,.91.59l.94,2.11a.51.51,0,0,0,.46.3h2.87a.24.24,0,0,0,.22-.13.24.24,0,0,0,0-.26l-1.48-2.22a.24.24,0,0,1,0-.26.24.24,0,0,1,.22-.13h1.08a1,1,0,0,1,.75.34l7,7.83a.49.49,0,0,1,.08.53.5.5,0,0,1-.45.3H45.54a1,1,0,0,1-.84-.45l-1.4-2.1a1,1,0,0,0-.84-.45H39.05a.26.26,0,0,0-.21.11.29.29,0,0,0,0,.24l.87,1.95a.49.49,0,0,1,0,.47.5.5,0,0,1-.42.23H36.8a1,1,0,0,1-1-.78l-.41-1.83a.49.49,0,0,0-.49-.39H33.17L34,25.82a5.32,5.32,0,0,1-4,0L30.83,40H29.07a.49.49,0,0,0-.49.39l-.41,1.83a1,1,0,0,1-1,.78H24.77a.5.5,0,0,1-.42-.23.49.49,0,0,1,0-.47l.87-1.95a.29.29,0,0,0,0-.24A.26.26,0,0,0,25,40H21.54a1,1,0,0,0-.84.45l-1.4,2.1a1,1,0,0,1-.84.45H16.21a.48.48,0,0,1-.46-.31.49.49,0,0,1,.1-.54l4.86-4.86a1,1,0,0,1,.7-.29h4.93a.51.51,0,0,0,.46-.3l.94-2.11a1,1,0,0,1,.91-.59h.82l-.28-4.94C14.85,29.62,4,34.44,4,40.5,4,47,16.3,52,32,52s28-5,28-11.5C60,34.44,49.15,29.62,34.81,29.06ZM32,51C17.36,51,5,46.19,5,40.5c0-1.88,1.35-3.65,3.68-5.2a6.48,6.48,0,0,0-2.83,4.64C5.85,45.46,17.64,50,32,50s26.15-4.54,26.15-10.06a6.48,6.48,0,0,0-2.83-4.64C57.65,36.85,59,38.62,59,40.5,59,46.19,46.64,51,32,51Z"/><path class="cls-1" d="M18.87,54.54h-2V60h1V58h1c.63,0,.94-.28.94-.86V55.39C19.81,54.82,19.5,54.54,18.87,54.54ZM18.82,57a.26.26,0,0,1-.05.18.31.31,0,0,1-.19,0h-.72V55.3h.72a.19.19,0,0,1,.24.23Z"/><path class="cls-1" d="M26.53,57V55.39c0-.57-.31-.85-.94-.85h-2V60h1V57.87h.33L25.74,60h1.07l-.91-2.16A.74.74,0,0,0,26.53,57Zm-1-.11a.29.29,0,0,1-.05.19.33.33,0,0,1-.2,0h-.71V55.3h.71a.27.27,0,0,1,.2.05.26.26,0,0,1,.05.18Z"/><polygon class="cls-1" points="32.54 58.1 31.39 54.54 30.43 54.54 30.43 60 31.35 60 31.35 56.38 32.52 60 33.45 60 33.45 54.54 32.54 54.54 32.54 58.1"/><path class="cls-1" d="M39.54,54.54H37.46V60h2.08c.63,0,.94-.29.94-.86V55.39C40.48,54.82,40.17,54.54,39.54,54.54ZM39.48,59a.25.25,0,0,1-.06.19s-.09,0-.19,0h-.78v-4h.78a.27.27,0,0,1,.19.05.24.24,0,0,1,.06.19Z"/><path class="cls-1" d="M46.23,56.87h-.69a.29.29,0,0,1-.19,0,.24.24,0,0,1-.06-.19v-1.1a.22.22,0,0,1,.06-.18s.1-.05.19-.05h.33c.1,0,.16,0,.19.05a.22.22,0,0,1,.06.18v.63h1v-.77c0-.57-.31-.85-.93-.85h-1c-.62,0-.93.28-.93.85v1.35a.78.78,0,0,0,.89.86h.7a.29.29,0,0,1,.19,0s.05.09.05.19V59c0,.1,0,.16-.05.19a.29.29,0,0,1-.19.05h-.33a.32.32,0,0,1-.2-.05.27.27,0,0,1,0-.19v-.61h-1v.75c0,.57.31.86.94.86h.93c.63,0,1-.29,1-.86V57.71C47.14,57.15,46.83,56.87,46.23,56.87Z"/></g></svg>