<svg xmlns="http://www.w3.org/2000/svg" viewBox="0 0 64 64"><defs><style>.cls-1{fill:#231f20;}</style></defs><g id="_04_Fuel_Type" data-name="04 Fuel Type"><path class="cls-1" d="M50,57H6a1,1,0,0,0-1,1v2H51V58A1,1,0,0,0,50,57Z"/><polygon class="cls-1" points="54 17.01 54 20 53 20 53 22 54 22 54 23 59 23 59 15 56.01 15 54 17.01"/><polygon class="cls-1" points="56.71 8.29 55.29 9.71 57 11.41 57 14 59 14 59 10.59 56.71 8.29"/><path class="cls-1" d="M57,43a2,2,0,0,1-2,2H51a2,2,0,0,1-2-2V29a1,1,0,0,0-1-1H45V23a2,2,0,0,0,2-2V6a2,2,0,0,0-2-2H11A2,2,0,0,0,9,6V21a2,2,0,0,0,2,2V56H45V36h2v7a4,4,0,0,0,4,4h4a4,4,0,0,0,4-4V24H57ZM19,50a3,3,0,0,1-3-3c0-2,3-5,3-5s3,3,3,5A3,3,0,0,1,19,50Zm6-8.22a.5.5,0,1,1-.5-.86.5.5,0,0,1,.5.86Zm-.14-2.23A1.5,1.5,0,0,1,23.24,37a4.92,4.92,0,0,1-.12-1,4.86,4.86,0,0,1,2.4-4.19,2.41,2.41,0,0,0,.22.75A4.11,4.11,0,0,0,23.88,36a3.84,3.84,0,0,0,.08.76,1.5,1.5,0,0,1,.89,2.79Zm-.35-9a.5.5,0,1,1,.5.5A.5.5,0,0,1,24.5,30.5ZM33.2,39a1.49,1.49,0,0,1-1.93.6A4.83,4.83,0,0,1,28,40.88a4.75,4.75,0,0,1-2.39-.64,2.25,2.25,0,0,0,.54-.57,4,4,0,0,0,1.85.45,4.1,4.1,0,0,0,2.68-1,1.48,1.48,0,0,1-.08-1.62A1.5,1.5,0,1,1,33.2,39ZM28,34a2,2,0,1,1-2,2A2,2,0,0,1,28,34Zm-1.5-2.5a1.5,1.5,0,0,1,3-.12A4.87,4.87,0,0,1,32.88,36a2.63,2.63,0,0,0-.77-.19,4.09,4.09,0,0,0-2.75-3.63,1.5,1.5,0,0,1-2.86-.63Zm7.33,4.4a.49.49,0,0,1,.68-.18.5.5,0,1,1-.5.86A.49.49,0,0,1,33.83,35.9ZM37,50.45V47H34l3-5.5V45h3Zm5-27.4c-1.17.19-2.33.27-3.5.41A136.29,136.29,0,0,1,21,23.7c-2.06-.13-5-.32-7-.65V23c7-.05,21-.05,28,0Zm2-3.55a.5.5,0,0,1-.5.5h-31a.5.5,0,0,1-.5-.5V7.5a.5.5,0,0,1,.5-.5h31a.5.5,0,0,1,.5.5Z"/><path class="cls-1" d="M16,17a24,24,0,0,0,7-7A24,24,0,0,0,16,17Z"/><path class="cls-1" d="M32,17a24,24,0,0,0,7-7A24,24,0,0,0,32,17Z"/><path class="cls-1" d="M36,17a4,4,0,0,0,2-2A4,4,0,0,0,36,17Z"/><path class="cls-1" d="M19,10a4,4,0,0,0-2,2A4,4,0,0,0,19,10Z"/></g></svg>