<svg xmlns="http://www.w3.org/2000/svg" viewBox="0 0 64 64"><defs><style>.cls-1{fill:#231f20;}</style></defs><g id="_05_Drive_Train" data-name="05 Drive Train"><rect class="cls-1" x="20" y="4" width="24" height="4" rx="0.25"/><path class="cls-1" d="M19.5,20h3a.5.5,0,0,0,.5-.5V16h7.21a1.83,1.83,0,0,0,1.29,1.29V20h1V17.29A1.83,1.83,0,0,0,33.79,16H41v3.5a.5.5,0,0,0,.5.5h3a.5.5,0,0,0,.5-.5v-8a.5.5,0,0,0-.5-.5h-3a.5.5,0,0,0-.5.5V15H33.79a1.85,1.85,0,0,0-3.58,0H23V11.5a.5.5,0,0,0-.5-.5h-3a.5.5,0,0,0-.5.5v8A.5.5,0,0,0,19.5,20Z"/><path class="cls-1" d="M26.88,14.5l.3-2.17A8.7,8.7,0,0,1,32,11a8.7,8.7,0,0,1,4.82,1.33l.3,2.17H40.5v-3a1,1,0,0,1,1-1h2a4.92,4.92,0,0,1-.4-1.5H21a4.92,4.92,0,0,1-.4,1.5H22.5a1,1,0,0,1,1,1v3Z"/><path class="cls-1" d="M46,32l-3,.75V24c0-1.81.43-2.12.72-3.5H41.5a1,1,0,0,1-1-1v-3H37.39L38,21H26l.61-4.5H23.5v3a1,1,0,0,1-1,1H20.28c.29,1.38.72,1.69.72,3.5v8.75L18,32c0,.88.78,1.76,3,2.64V41a5.64,5.64,0,0,1-.46,2.5h2a1,1,0,0,1,1,1v3h6.36A2.43,2.43,0,0,1,31,46.36V43h.5v3.71A1.83,1.83,0,0,0,30.21,48H23V44.5a.5.5,0,0,0-.5-.5h-3a.5.5,0,0,0-.5.5v8a.5.5,0,0,0,.5.5h3a.5.5,0,0,0,.5-.5V49h7.21a1.85,1.85,0,0,0,3.58,0H41v3.5a.5.5,0,0,0,.5.5h3a.5.5,0,0,0,.5-.5v-8a.5.5,0,0,0-.5-.5h-3a.5.5,0,0,0-.5.5V48H33.79a1.83,1.83,0,0,0-1.29-1.29V43H33v3.36a2.43,2.43,0,0,1,1.14,1.14H40.5v-3a1,1,0,0,1,1-1h2A5.64,5.64,0,0,1,43,41V34.64C45.22,33.76,46,32.88,46,32ZM25,17c0,1,0,12-2,18C23,28,22.73,17.67,25,17Zm2,29-1-3h1Zm10,0V43h1Zm4-5-4,1H27l-4-1V38s1-3,2-7a17.47,17.47,0,0,0,7,1,17.47,17.47,0,0,0,7-1c1,4,2,7,2,7Zm0-6c-2-6-2-17-2-18C41.27,17.67,41,28,41,35Z"/><path class="cls-1" d="M40.5,52.5v-3H34.14a2.36,2.36,0,0,1-4.28,0H23.5v3a1,1,0,0,1-1,1H20.43A8.26,8.26,0,0,0,21,55c.45.89,6,5.41,6,4,0-1,1,1,5,1s5-2,5-1c0,1.41,5.55-3.11,6-4a8.26,8.26,0,0,0,.57-1.5H41.5A1,1,0,0,1,40.5,52.5ZM25.14,56.72a4.42,4.42,0,0,1-.94-.18,1.63,1.63,0,0,1-.83-.63A2.19,2.19,0,0,1,23,55c.24.23.43.47.66.66a2.08,2.08,0,0,0,.7.41c.26.1.58.14.89.28A1.37,1.37,0,0,1,26,57,2.47,2.47,0,0,0,25.14,56.72Zm15.49-.81a1.63,1.63,0,0,1-.83.63,4.42,4.42,0,0,1-.94.18A2.47,2.47,0,0,0,38,57a1.37,1.37,0,0,1,.75-.65c.31-.14.63-.18.89-.28a2.08,2.08,0,0,0,.7-.41c.23-.19.42-.43.66-.66A2.19,2.19,0,0,1,40.63,55.91Z"/></g></svg>