<svg xmlns="http://www.w3.org/2000/svg" viewBox="0 0 64 64"><defs><style>.cls-1{fill:#231f20;}</style></defs><g id="_06_Number_of_Passenger" data-name="06 Number of Passenger"><path class="cls-1" d="M32,22a3,3,0,1,0-3-3A3,3,0,0,0,32,22Zm.55-4h1a.13.13,0,0,1,.13.13.12.12,0,0,1-.13.12h-1a.12.12,0,0,1-.12-.12A.12.12,0,0,1,32.55,18ZM32,20a.5.5,0,1,1-.5.5A.5.5,0,0,1,32,20Zm-1.55-2h1a.12.12,0,0,1,.12.13.12.12,0,0,1-.12.12h-1a.12.12,0,0,1-.13-.12A.13.13,0,0,1,30.45,18Z"/><path class="cls-1" d="M43,22a3,3,0,1,0-3-3A3,3,0,0,0,43,22Zm.57-3.82a.74.74,0,0,1,.6-.28.79.79,0,0,1,.6.28.14.14,0,0,1,0,.18.11.11,0,0,1-.08,0,.14.14,0,0,1-.1-.05.49.49,0,0,0-.4-.19h-.08a.54.54,0,0,0-.33.19.14.14,0,0,1-.18,0A.13.13,0,0,1,43.57,18.18ZM44,20a1.11,1.11,0,0,1-2,0A3.77,3.77,0,0,0,44,20Zm-2.77-1.82a.75.75,0,0,1,.6-.28.78.78,0,0,1,.6.28.13.13,0,0,1,0,.18l-.08,0a.12.12,0,0,1-.1-.05.49.49,0,0,0-.4-.19h-.08a.5.5,0,0,0-.33.19.13.13,0,0,1-.2-.16Z"/><path class="cls-1" d="M21,22a3,3,0,1,0-3-3A3,3,0,0,0,21,22Zm.89-3.82a.75.75,0,0,1,.6-.28.79.79,0,0,1,.6.28.13.13,0,0,1,0,.18.11.11,0,0,1-.08,0,.12.12,0,0,1-.09-.05.49.49,0,0,0-.4-.19h-.08a.54.54,0,0,0-.34.19.12.12,0,0,1-.17,0A.13.13,0,0,1,21.89,18.18Zm-2,0a.78.78,0,0,1,1.2,0,.12.12,0,0,1,0,.18.11.11,0,0,1-.08,0,.12.12,0,0,1-.09-.05.52.52,0,0,0-.4-.19h-.08a.54.54,0,0,0-.34.19.12.12,0,0,1-.17,0A.14.14,0,0,1,19.9,18.18Zm0,1.49c.79.25,1.46.1,2.13.66,0,0,0,.05,0,.05-.75,0-1.75.09-2.18-.69C19.81,19.66,19.85,19.66,19.87,19.67Z"/><path class="cls-1" d="M11.52,37.9a1.54,1.54,0,0,1-1.12-1,1.28,1.28,0,0,1,.32-1.26A1.3,1.3,0,0,1,12,35.28a1.57,1.57,0,0,1,1,1.12,1.51,1.51,0,0,0-.81-1.66,1.76,1.76,0,0,0-2,.33,1.79,1.79,0,0,0-.33,2A1.51,1.51,0,0,0,11.52,37.9Z"/><path class="cls-1" d="M40,36.25l.27-.55a.55.55,0,0,0,0-.54.58.58,0,0,0-.48-.26H24.19a.56.56,0,0,0-.47.26.53.53,0,0,0,0,.54l.27.55Z"/><path class="cls-1" d="M24.65,37.62a.51.51,0,0,0,.45.28H38.86a.51.51,0,0,0,.45-.28l.44-.87H24.21Z"/><path class="cls-1" d="M15.3,38.28A1.25,1.25,0,1,0,14.05,37,1.25,1.25,0,0,0,15.3,38.28Zm0-2a.75.75,0,1,1-.75.75A.75.75,0,0,1,15.3,36.28Z"/><path class="cls-1" d="M49,14c-1.58-1.58-10-2-17-2s-15.42.42-17,2c-1,1-4,8-5,14,0,0-4,4-4,5v4c0,3.22.55,7.55,3,10,4.9,1.23,18,1,23,1s18.1.23,23-1c2.45-2.45,3-6.79,3-10V33c0-1-4-5-4-5C53,22,50,15,49,14ZM15.71,15.71C16.49,14.92,21.23,14,32,14s15.51.92,16.29,1.71S52,23,52.56,27.13l-3.87-.28-.44-3.13a2,2,0,0,0-2-1.72h-.65a3.93,3.93,0,0,1-5.24,0h-.65a2,2,0,0,0-2,1.72l-.35,2.51-1,0,.38-2.57A3.43,3.43,0,0,1,37,23a2,2,0,0,0-1.72-1h-.61a3.93,3.93,0,0,1-5.24,0h-.61a2,2,0,0,0-1.72,1,3.43,3.43,0,0,1,.16.65l.38,2.56-1,0-.35-2.5a2,2,0,0,0-2-1.72h-.65a3.93,3.93,0,0,1-5.24,0h-.65a2,2,0,0,0-2,1.72l-.44,3.1-3.85.28C12,23,15,16.4,15.71,15.71Zm30.69,11a3.89,3.89,0,0,0-1.34-1.27A4,4,0,0,0,43,24.88a4.17,4.17,0,0,0-3.15,1.45l-.89,0a4.88,4.88,0,0,1,6.47-1.51,4.75,4.75,0,0,1,1.86,2ZM8,34.9c0-3,7,0,10,1,2.26.75,2.82,2.07,2.95,2.68a.25.25,0,0,1,0,.22.26.26,0,0,1-.2.1H11C9,38.9,8,37.9,8,34.9ZM43.5,43.38c-3.83.09-7.67.08-11.5.12s-7.67,0-11.5-.12l-5.75-.13c-1.92-.09-3.83-.14-5.75-.25,1.92-.11,3.83-.16,5.75-.25l5.75-.13c3.83-.08,7.67-.08,11.5-.12s7.67,0,11.5.12,7.67.17,11.5.38C51.17,43.21,47.33,43.3,43.5,43.38ZM22.86,34.64a1.57,1.57,0,0,1,1.33-.74H39.77a1.55,1.55,0,0,1,1.39,2.25l-1,1.92a1.49,1.49,0,0,1-1.34.83H25.1a1.49,1.49,0,0,1-1.34-.83l-1-1.92A1.53,1.53,0,0,1,22.86,34.64ZM56,34.9c0,3-1,4-3,4h-9.7a.26.26,0,0,1-.2-.1.25.25,0,0,1,0-.22c.13-.61.69-1.93,2.95-2.68C49,34.9,56,31.9,56,34.9Zm-6.84-4.19c-1.92-.08-3.83-.13-5.75-.15-3.83-.06-7.66-.11-11.5-.06s-7.67,0-11.5.06c-1.92,0-3.84.07-5.75.15L8.89,31a100.22,100.22,0,0,1,11.47-1.21c3.84-.22,7.69-.25,11.53-.29s7.69.07,11.53.29A100.22,100.22,0,0,1,54.89,31C53,30.88,51.06,30.76,49.14,30.71Z"/><path class="cls-1" d="M7.19,27.57l.65,1.23c.34-.37.74-.78,1.17-1.22l-.82-.86c.39-1.42,0-2.38-1.08-2.38S4,24,4,25c0,0,0,2.15,1,2.49A4.78,4.78,0,0,0,7.19,27.57Z"/><path class="cls-1" d="M56.89,24.34c-1.12,0-1.47,1-1.08,2.38l-.82.86c.43.44.83.85,1.17,1.22l.65-1.23A4.78,4.78,0,0,0,59,27.49c1-.34,1-2.49,1-2.49C60,24,58,24.34,56.89,24.34Z"/><path class="cls-1" d="M55.51,47.9l-.27.07a33.61,33.61,0,0,1-5.24.71V51a1,1,0,0,0,1,1h6a1,1,0,0,0,1-1V43.83a10.07,10.07,0,0,1-2.29,3.88Z"/><path class="cls-1" d="M51.79,34.74A1.51,1.51,0,0,0,51,36.4a1.57,1.57,0,0,1,1-1.12,1.3,1.3,0,0,1,1.26.32,1.28,1.28,0,0,1,.32,1.26,1.54,1.54,0,0,1-1.12,1,1.51,1.51,0,0,0,1.66-.81,1.79,1.79,0,0,0-.33-2A1.76,1.76,0,0,0,51.79,34.74Z"/><path class="cls-1" d="M8.49,47.9l-.2-.19A10.07,10.07,0,0,1,6,43.83V51a1,1,0,0,0,1,1h6a1,1,0,0,0,1-1V48.68A33.61,33.61,0,0,1,8.76,48Z"/><path class="cls-1" d="M48.7,35.78A1.25,1.25,0,1,0,50,37,1.25,1.25,0,0,0,48.7,35.78Zm0,2a.75.75,0,1,1,.75-.75A.76.76,0,0,1,48.7,37.78Z"/></g></svg>