<svg xmlns="http://www.w3.org/2000/svg" viewBox="0 0 64 64"><defs><style>.cls-1{fill:#202020;}</style></defs><g id="_07_Pet_Friendly" data-name="07 Pet Friendly"><path class="cls-1" d="M43,26.87,43,26.1a2.8,2.8,0,0,1-1,.2c.18.62.65,1.07,1.07,1.07s.88-.45,1.06-1.07a2.8,2.8,0,0,1-1-.2Z"/><path class="cls-1" d="M45.72,23.43a2,2,0,0,0,.41,1.8c.51.77.69-.87,1.45-1.73,1.3-1.49,0-1.35-.86-2.57S45.29,19.41,43,19.41s-2.81.25-3.72,1.52S37.12,22,38.42,23.5c.76.86.94,2.5,1.45,1.73a2,2,0,0,0,.41-1.8,3.08,3.08,0,0,1,.22-2.2,2.51,2.51,0,0,0-.21,1.46c.15,1.31.9,1.5.69,2.29-.27,1,1.43,1.2,1.89.6a1,1,0,0,0,.07-.45.77.77,0,0,1-.63-.49c-.06-.35.22-.45.7-.45s.75.1.69.45a.74.74,0,0,1-.64.49,1,1,0,0,0,.07.45c.46.6,2.16.36,1.89-.6-.21-.79.54-1,.69-2.29a2.51,2.51,0,0,0-.21-1.46A3.08,3.08,0,0,1,45.72,23.43Zm-4.13-.95a.17.17,0,0,1-.17-.17.16.16,0,0,1,.17-.17.17.17,0,0,1,.17.17A.18.18,0,0,1,41.59,22.48Zm2.83,0a.18.18,0,0,1-.17-.17.17.17,0,0,1,.17-.17.16.16,0,0,1,.17.17A.17.17,0,0,1,44.42,22.48Z"/><path class="cls-1" d="M18,27A14,14,0,1,0,32,41,14,14,0,0,0,18,27Zm1.25,9.18c.34-.91,1.05-1.48,1.59-1.28s.69,1.09.37,2-1.05,1.48-1.59,1.28S18.93,37.08,19.25,36.18ZM15.16,34.9c.54-.2,1.25.37,1.59,1.28s.16,1.8-.37,2-1.25-.37-1.59-1.28S14.63,35.09,15.16,34.9Zm-2.6,5.55c-.47-.84-.46-1.75,0-2s1.29.16,1.76,1,.48,1.74,0,2S13,41.28,12.56,40.45Zm9.13,5.8c-1.39,2-2.64.08-3.69.08s-2.3,1.88-3.69-.08.22-2.36,1.28-3.41.74-2.61,2.41-2.61,1.36,1.56,2.41,2.61S23.05,44.32,21.69,46.25Zm1.75-5.8c-.48.83-1.28,1.27-1.77,1s-.51-1.19,0-2,1.26-1.28,1.76-1S23.91,39.61,23.44,40.45Z"/><path class="cls-1" d="M28.06,13.07c.22,1.75,2.56,2.51,3.94,2.51s3.72-.76,3.94-2.51a3.79,3.79,0,0,0-.5-2.4c.33-.56.4-2.69-.22-2.67A2.81,2.81,0,0,0,33.5,9a5.46,5.46,0,0,0-3,0,2.81,2.81,0,0,0-1.72-1c-.62,0-.53,2.13-.2,2.69A3.64,3.64,0,0,0,28.06,13.07Zm1.06.44a1.46,1.46,0,0,1,1.14.12h0A7.23,7.23,0,0,0,29.12,13.51ZM29,12.77a2,2,0,0,1,1.3.44l-.09-.07.09.07A9.94,9.94,0,0,0,29,12.77Zm4.77.86a1.44,1.44,0,0,1,1.13-.12A7.1,7.1,0,0,0,33.75,13.63Zm0-.42a2,2,0,0,1,1.3-.44A9.94,9.94,0,0,0,33.72,13.21Zm1.11-4.75c.12,0,.28-.11.35,0a.82.82,0,0,1,.07.29,1.23,1.23,0,0,1-.06.57.84.84,0,0,0-.08-.56c-.07-.13-.84.13-1.16.39A2,2,0,0,1,34.83,8.46ZM33.7,11.79a.22.22,0,0,1,.22.22.23.23,0,1,1-.22-.22Zm-1.87,1.55a.44.44,0,0,1-.27-.26c0-.21.14-.27.44-.27s.48.06.44.27a.43.43,0,0,1-.28.26c.19.23.45.43.77.27a.74.74,0,0,1-.93-.12.74.74,0,0,1-.93.12A.6.6,0,0,0,31.83,13.34ZM30.3,11.79a.23.23,0,1,1-.22.22A.22.22,0,0,1,30.3,11.79Zm-1.55-3a.82.82,0,0,1,.07-.29c.07-.13.23-.06.35,0a2,2,0,0,1,.88.71c-.32-.26-1.09-.52-1.16-.39a.84.84,0,0,0-.08.56A1.23,1.23,0,0,1,28.75,8.77Z"/><path class="cls-1" d="M26.23,15.53v0a1,1,0,0,1,.26-.43,1.86,1.86,0,0,1-.08.54,1.71,1.71,0,0,0,.47.09A2.58,2.58,0,0,1,27,15a2.58,2.58,0,0,1,.12.72,1.72,1.72,0,0,0,.52-.11c0-.17-.06-.36-.09-.51s0,0,0,0a1.27,1.27,0,0,1,.26.43v0a.68.68,0,0,0,.43-.55,1.31,1.31,0,0,0-2.52,0C25.74,15.19,25.94,15.39,26.23,15.53Z"/><path class="cls-1" d="M36.23,15.53v0a1,1,0,0,1,.26-.43,1.86,1.86,0,0,1-.08.54,1.71,1.71,0,0,0,.47.09A2.58,2.58,0,0,1,37,15a2.58,2.58,0,0,1,.12.72,1.72,1.72,0,0,0,.52-.11c0-.17-.06-.36-.09-.51s0,0,0,0a1.27,1.27,0,0,1,.26.43v0a.68.68,0,0,0,.43-.55,1.31,1.31,0,0,0-2.52,0C35.74,15.19,35.94,15.39,36.23,15.53Z"/><path class="cls-1" d="M6,50v5a1,1,0,0,0,1,1h6a1,1,0,0,0,.9-.57A15,15,0,0,1,6,50Z"/><path class="cls-1" d="M55.51,51.9l-.27.07a33.61,33.61,0,0,1-5.24.71V55a1,1,0,0,0,1,1h6a1,1,0,0,0,1-1V47.83a10.07,10.07,0,0,1-2.29,3.88Z"/><path class="cls-1" d="M5,31.49a3.44,3.44,0,0,0,1.3.18,14.37,14.37,0,0,1,2.07-2.13,1.14,1.14,0,0,0-1.22-1.2C6,28.34,4,28,4,29,4,29,4,31.15,5,31.49Z"/><path class="cls-1" d="M40.27,39.7a.55.55,0,0,0,0-.54.58.58,0,0,0-.48-.26H32.84q.09.66.12,1.35h7Z"/><path class="cls-1" d="M38.86,41.9a.51.51,0,0,0,.45-.28l.44-.87H33c0,.08,0,.17,0,.25,0,.3,0,.6,0,.9Z"/><path class="cls-1" d="M49,18c-1.07-1.07-5.28-1.61-10-1.84-.4.59-1.15.57-2,.57H27a2.83,2.83,0,0,1-1.7-.32,1.13,1.13,0,0,1-.23-.26,1.53,1.53,0,0,1,0-1.21c.44-1.3-.24-1.79-.46-1.91a1.38,1.38,0,0,0-1.7.45A.37.37,0,0,0,23,14a.38.38,0,0,0,.52-.07.64.64,0,0,1,.76-.24c.23.12.27.5.1,1a2.35,2.35,0,0,0-.05,1.5C19.84,16.45,16,17,15,18c-.77.77-2.71,5.08-4,9.75a15.27,15.27,0,0,1,1.48-.68,32.4,32.4,0,0,1,3.26-7.36C16.49,18.92,21.23,18,32,18s15.51.92,16.29,1.71S52,27,52.54,31.1c0,0-2.11-.17-5.16-.36a6.47,6.47,0,0,0-.13-3,4.89,4.89,0,0,0-1.76-2.17,1.18,1.18,0,0,1-.16.29,1.47,1.47,0,0,1-.8.5c-.25.89-.88,1.54-1.52,1.54s-1.28-.64-1.53-1.54a1.41,1.41,0,0,1-.81-.5,1,1,0,0,1-.14-.25,4.89,4.89,0,0,0-1.69,2.13,5.75,5.75,0,0,0-.2,2.56l-1.14,0a3.62,3.62,0,0,1,.26-1l.06-.16a2.26,2.26,0,0,0-1.11-2.91.51.51,0,0,0-.67.25.5.5,0,0,0,.25.66,1.31,1.31,0,0,1,.59,1.66l-.06.17a4.55,4.55,0,0,0-.31,1.26c-1.58,0-3.11-.07-4.51-.07-1.14,0-2.37,0-3.63.05A15.12,15.12,0,0,1,31,33.51h1.13c3.84,0,7.69.07,11.53.29A100.22,100.22,0,0,1,55.11,35l-5.75-.29c-1.91-.08-3.83-.13-5.75-.15-3.83-.06-7.66-.1-11.5-.06H31.5a15,15,0,0,1,1.18,3.4h7.09a1.55,1.55,0,0,1,1.39,2.25l-1,1.92a1.49,1.49,0,0,1-1.34.83h-6a14.88,14.88,0,0,1-.93,3.6H32c3.83,0,7.67,0,11.5.12l5.75.13c1.92.09,3.83.14,5.75.25-1.92.11-3.83.16-5.75.25l-5.75.13c-3.83.08-7.67.08-11.5.12h-.5A14.88,14.88,0,0,1,28.16,52H32c5,0,18.1.23,23-1,2.45-2.45,3-6.78,3-10V37c0-1-4-5-4-5C53,26,50,19,49,18ZM45.44,29.19A4.79,4.79,0,0,1,47,30.72l-1-.07a3.84,3.84,0,0,0-1-.81A4,4,0,0,0,43,29.29a4.12,4.12,0,0,0-2.75,1.05l-1,0A4.87,4.87,0,0,1,45.44,29.19ZM56,38.9c0,3-1,4-3,4h-9.7a.26.26,0,0,1-.2-.1.25.25,0,0,1,0-.22c.13-.61.69-1.93,2.95-2.68C49,38.9,56,35.9,56,38.9Z"/><path class="cls-1" d="M56.89,28.34c-1.12,0-1.47,1-1.08,2.38l-.82.86c.43.44.83.85,1.17,1.22l.65-1.23A4.78,4.78,0,0,0,59,31.49c1-.34,1-2.49,1-2.49C60,28,58,28.34,56.89,28.34Z"/><path class="cls-1" d="M51.79,38.74A1.51,1.51,0,0,0,51,40.4a1.57,1.57,0,0,1,1-1.12,1.3,1.3,0,0,1,1.26.32,1.28,1.28,0,0,1,.32,1.26,1.54,1.54,0,0,1-1.12,1,1.51,1.51,0,0,0,1.66-.81,1.79,1.79,0,0,0-.33-2A1.77,1.77,0,0,0,51.79,38.74Z"/><path class="cls-1" d="M48.7,39.78A1.25,1.25,0,1,0,50,41,1.25,1.25,0,0,0,48.7,39.78Zm0,2a.75.75,0,1,1,.75-.75A.76.76,0,0,1,48.7,41.78Z"/></g></svg>