<svg xmlns="http://www.w3.org/2000/svg" viewBox="0 0 64 64"><defs><style>.cls-1{fill:#231f20;}</style></defs><g id="_08_Android_to_Mac" data-name="08 Android to Mac"><path class="cls-1" d="M6.5,11v5a1,1,0,0,0,1,1V10A1,1,0,0,0,6.5,11Z"/><path class="cls-1" d="M6.5,20v5a1,1,0,0,0,1,1V19A1,1,0,0,0,6.5,20Z"/><circle class="cls-1" cx="21.1" cy="25.45" r="0.22"/><circle class="cls-1" cx="18.9" cy="25.45" r="0.22"/><path class="cls-1" d="M28,28a8,8,0,1,0-8,8A8,8,0,0,0,28,28ZM17.2,29.4a.6.6,0,1,1-1.2,0v-2a.6.6,0,1,1,1.2,0Zm5.2,1a.41.41,0,0,1-.41.41H21.6v1a.61.61,0,0,1-.61.61.62.62,0,0,1-.61-.61v-1h-.76v1a.62.62,0,0,1-.61.61.61.61,0,0,1-.61-.61v-1H18a.41.41,0,0,1-.41-.41V26.8h4.8Zm-4.8-4a2,2,0,0,1,1.21-1.73l-.48-.92a.11.11,0,0,1,0-.14.11.11,0,0,1,.14.05l.48.92a2.92,2.92,0,0,1,2,0l.48-.92a.11.11,0,0,1,.14-.05.11.11,0,0,1,0,.14l-.48.92A2,2,0,0,1,22.4,26.4Zm6.4,3a.6.6,0,1,1-1.2,0v-2a.6.6,0,1,1,1.2,0Z"/><path class="cls-1" d="M57.5,10v7a1,1,0,0,0,1-1V11A1,1,0,0,0,57.5,10Z"/><path class="cls-1" d="M9.5,48.74V7.26A1.76,1.76,0,0,1,11.26,5.5H14.5l.32,1a.8.8,0,0,0,.75.54h8.86a.8.8,0,0,0,.75-.54l.32-1h3.24A1.76,1.76,0,0,1,30.5,7.26V48.74a1.76,1.76,0,0,1-1.76,1.76H22V52h6.74A3.26,3.26,0,0,0,32,48.74V7.26A3.26,3.26,0,0,0,28.74,4H11.26A3.26,3.26,0,0,0,8,7.26V48.74A3.26,3.26,0,0,0,11.26,52H18V50.5H11.26A1.76,1.76,0,0,1,9.5,48.74Zm10-43.62h4a.38.38,0,1,1,0,.76h-4a.38.38,0,0,1,0-.76ZM16.5,5a.5.5,0,1,1-.5.5A.5.5,0,0,1,16.5,5Z"/><path class="cls-1" d="M53.74,4H36.26A3.26,3.26,0,0,0,33,7.26V48.74A3.26,3.26,0,0,0,36.26,52H43V50.5H36.26a1.76,1.76,0,0,1-1.76-1.76V7.26A1.76,1.76,0,0,1,36.26,5.5H39.5l.32,1a.8.8,0,0,0,.75.54h8.86a.8.8,0,0,0,.75-.54l.32-1h3.24A1.76,1.76,0,0,1,55.5,7.26V48.74a1.76,1.76,0,0,1-1.76,1.76H47V52h6.74A3.26,3.26,0,0,0,57,48.74V7.26A3.26,3.26,0,0,0,53.74,4ZM41.5,6a.5.5,0,1,1,.5-.5A.5.5,0,0,1,41.5,6Zm7-.12h-4a.38.38,0,0,1,0-.76h4a.38.38,0,0,1,0,.76Z"/><path class="cls-1" d="M53,28a8,8,0,1,0-8,8A8,8,0,0,0,53,28Zm-6.22-4.41s0,1.93-1.78,1.93A1.82,1.82,0,0,1,46.78,23.59Zm-5.41,4.76c0-1.87,1.2-2.67,2.14-2.67s1.05.36,1.65.36.82-.36,1.65-.36a2,2,0,0,1,1.61.86,1.95,1.95,0,0,0,.21,3.53c-.46,1.28-1.31,2.34-1.9,2.34-.86,0-.95-.31-1.57-.31s-.7.31-1.56.31S41.37,30.23,41.37,28.35Z"/><path class="cls-1" d="M35.5,56.5a2.48,2.48,0,0,0-.74-1.78A2.42,2.42,0,0,0,33,54H32a2.3,2.3,0,0,0-1.76.72,2.48,2.48,0,0,0-.74,1.78,2.94,2.94,0,0,0,1.43,2.42A12.43,12.43,0,0,1,29.5,59H21.26a.75.75,0,0,1-.76-.76V57H21a.47.47,0,0,0,.46-.46v-4h-.33v-2H19.92v.26h.24a.07.07,0,0,1,.07.07v.41a.07.07,0,0,1-.07.07h-.24v.41h.24a.07.07,0,0,1,.07.07v.41a.08.08,0,0,1-.07.08h-.24v.22h-.15v-.3a.07.07,0,0,1,.07-.07h.24v-.26h-.24a.08.08,0,0,1-.07-.08v-.55a.08.08,0,0,1,.07-.08h.24v-.25h-.24a.08.08,0,0,1-.07-.08V50.5h-.94v2H18.5v4A.47.47,0,0,0,19,57h1v.56h-.5v.68A1.76,1.76,0,0,0,21.26,60H29.5a11,11,0,0,0,3-.37C34.6,59,35.5,57.7,35.5,56.5Zm-3,2.07c-1.37-.47-2-1.27-2-2.07A1.47,1.47,0,0,1,31,55.43,1.44,1.44,0,0,1,32,55h1a1.43,1.43,0,0,1,1,.43,1.47,1.47,0,0,1,.45,1.07C34.5,57.3,33.87,58.1,32.5,58.57Z"/><path class="cls-1" d="M46.17,50.5H43.83v2H43.5v4A.47.47,0,0,0,44,57h1v.56h-.5v.68a.75.75,0,0,1-.76.76H35.5l-.71,0a5.08,5.08,0,0,1-1.38.85A11.78,11.78,0,0,0,35.5,60h8.24a1.76,1.76,0,0,0,1.76-1.76V57H46a.47.47,0,0,0,.46-.46v-4h-.33Zm-2,.37a.18.18,0,0,1,.18-.18h1.32a.18.18,0,0,1,.18.18v.36a.18.18,0,0,1-.18.18H44.34a.18.18,0,0,1-.18-.18Z"/><rect class="cls-1" x="44.93" y="50.83" width="0.14" height="0.44"/><rect class="cls-1" x="45.55" y="50.83" width="0.14" height="0.44"/><rect class="cls-1" x="44.31" y="50.83" width="0.14" height="0.44"/><rect class="cls-1" x="45.24" y="50.83" width="0.14" height="0.44"/><rect class="cls-1" x="44.62" y="50.83" width="0.14" height="0.44"/></g></svg>