<svg xmlns="http://www.w3.org/2000/svg" viewBox="0 0 64 64"><defs><style>.cls-1{fill:#231f20;}</style></defs><g id="_09_Heated_Seat" data-name="09 Heated Seat"><path class="cls-1" d="M32,38.55c1.42,0,4.2-1,4.2-4a3.71,3.71,0,0,0-1.68-3.43,1,1,0,0,1-.66,1c.74-2.37-1.08-4.41-2.39-5a2.27,2.27,0,0,1-.89,2.65A3.51,3.51,0,0,0,29.24,33a1.13,1.13,0,0,1-.6-1,4.27,4.27,0,0,0-.84,2.63A4,4,0,0,0,32,38.55Zm-1.9-3a1.92,1.92,0,0,1,3.8,0,1.75,1.75,0,0,1-1.32,2,1.69,1.69,0,0,0,.94-1.89A1.58,1.58,0,0,0,32,34.42a1.62,1.62,0,0,0-.58,3.1A1.75,1.75,0,0,1,30.1,35.57Z"/><path class="cls-1" d="M37,30.58c-.19.05-.31.28-.39.37-.25.34-.18.58-.24,1l0,0A1.4,1.4,0,0,0,37,30.58Z"/><path class="cls-1" d="M27.68,32a1.56,1.56,0,0,0-.58-1.4c-.14,0,0,.66,0,.82S27.59,32.15,27.68,32Z"/><path class="cls-1" d="M32,14.52c6.9,0,6.61-1.65,5.1-7.67C36.38,4,35.72,4,32,4s-4.38,0-5.1,2.85C25.39,12.87,25.1,14.52,32,14.52Z"/><path class="cls-1" d="M36.71,36.38A2.42,2.42,0,0,0,38,34.85a2.15,2.15,0,0,0-1.32,1.49Z"/><path class="cls-1" d="M17.05,50.47a2.65,2.65,0,0,1,1.9-.94,7.16,7.16,0,0,0,4.23-1.6l.05,0c-1.41-.84-1.95.08-4.39-.67-.9-.28-1.56-1.8-2.24-1.66-.76.46-.75,2.55.18,4.16a8,8,0,0,1-1.26-4,3.63,3.63,0,0,0-1.81,1.55c-1.42,2.1.15,9,.74,10.58.19.5,1.15.8,1.75,1C15.66,54.48,15.94,51.79,17.05,50.47ZM14.38,49a5.6,5.6,0,0,0,1.31,2.5A2.41,2.41,0,0,1,14.38,49Z"/><path class="cls-1" d="M27.29,36.38A2.17,2.17,0,0,0,26,34.83C26,35.38,26.78,36.15,27.29,36.38Z"/><path class="cls-1" d="M50.29,47.24a3.63,3.63,0,0,0-1.81-1.55,8,8,0,0,1-1.26,4c.93-1.61.94-3.7.18-4.16-.68-.14-1.34,1.38-2.24,1.66-2.44.75-3-.17-4.39.67l0,0a7.16,7.16,0,0,0,4.23,1.6,2.65,2.65,0,0,1,1.9.94c1.11,1.32,1.39,4,.85,8.3.6-.15,1.56-.45,1.75-1C50.14,56.29,51.71,49.34,50.29,47.24Zm-2,4.21A5.6,5.6,0,0,0,49.62,49,2.41,2.41,0,0,1,48.31,51.45Z"/><path class="cls-1" d="M44.6,50.43a7.64,7.64,0,0,1-4.35-2.14A68,68,0,0,0,32,48a68,68,0,0,0-8.25.32,7.64,7.64,0,0,1-4.35,2.14c-1.49.11-3.22,1.06-2.28,8.45,0,0,.37,1.12,14.88,1.12s14.88-1.12,14.88-1.12C47.82,51.49,46.09,50.54,44.6,50.43Zm-5.84-.17c-4.53-.17-9-.17-13.52,0A36,36,0,0,1,38.76,50.26Zm-19.32,1.8a247.62,247.62,0,0,0,25.12,0A96,96,0,0,1,19.44,52.06Z"/><path class="cls-1" d="M18.59,45.83a3.2,3.2,0,0,0,.55.42,2.64,2.64,0,0,0,1.69.28l.52,0h.5a3.46,3.46,0,0,1,1.89.52l.37.22c1-.09,3.36-.27,7.89-.27s7,.18,7.92.27l.34-.22a3.46,3.46,0,0,1,1.89-.52h.5l.52,0a5.31,5.31,0,0,0,1.69-.28l.32-.1a13.86,13.86,0,0,0,2-7.22c.22-6-3.34-17-3.34-17-1.63,4.15-3.3,5-3.3,5,2.44-4.29,3.13-7.15,2.7-9.75-.28-1.7-2.26-2.48-5.36-2.83-1.18,1-3.21,1.19-5.83,1.19s-4.65-.22-5.83-1.19c-3.1.35-5.08,1.13-5.36,2.83-.43,2.6.26,5.46,2.7,9.75,0,0-1.67-.81-3.3-5,0,0-3.56,11-3.34,17C17,42.72,17.72,44.74,18.59,45.83Zm26-1.32c1.22-6.19,0-12.57-.94-18.69C45.2,31.72,46.4,38.5,44.63,44.51ZM32,23.48a9.13,9.13,0,1,1-9.13,9.13A9.13,9.13,0,0,1,32,23.48ZM20.31,25.82c-1,6.12-2.16,12.5-.94,18.69C17.6,38.5,18.8,31.72,20.31,25.82Z"/></g></svg>