<svg xmlns="http://www.w3.org/2000/svg" viewBox="0 0 64 64"><defs><style>.cls-1{fill:#231f20;}</style></defs><g id="_10_Cooled_Seat" data-name="10 Cooled Seat"><path class="cls-1" d="M32,14.52c6.9,0,6.61-1.65,5.1-7.67C36.38,4,35.72,4,32,4s-4.38,0-5.1,2.85C25.39,12.87,25.1,14.52,32,14.52Z"/><path class="cls-1" d="M17.05,50.47a2.65,2.65,0,0,1,1.9-.94,7.16,7.16,0,0,0,4.23-1.6l.05,0c-1.41-.84-1.95.08-4.39-.67-.9-.28-1.56-1.8-2.24-1.66-.76.46-.75,2.55.18,4.16a8,8,0,0,1-1.26-4,3.63,3.63,0,0,0-1.81,1.55c-1.42,2.1.15,9,.74,10.58.19.5,1.15.8,1.75,1C15.66,54.48,15.94,51.79,17.05,50.47ZM14.38,49a5.6,5.6,0,0,0,1.31,2.5A2.41,2.41,0,0,1,14.38,49Z"/><path class="cls-1" d="M50.29,47.24a3.63,3.63,0,0,0-1.81-1.55,8,8,0,0,1-1.26,4c.93-1.61.94-3.7.18-4.16-.68-.14-1.34,1.38-2.24,1.66-2.44.75-3-.17-4.39.67l0,0a7.16,7.16,0,0,0,4.23,1.6,2.65,2.65,0,0,1,1.9.94c1.11,1.32,1.39,4,.85,8.3.6-.15,1.56-.45,1.75-1C50.14,56.29,51.71,49.34,50.29,47.24Zm-2,4.21A5.6,5.6,0,0,0,49.62,49,2.41,2.41,0,0,1,48.31,51.45Z"/><path class="cls-1" d="M44.6,50.43a7.64,7.64,0,0,1-4.35-2.14A68,68,0,0,0,32,48a68,68,0,0,0-8.25.32,7.64,7.64,0,0,1-4.35,2.14c-1.49.11-3.22,1.06-2.28,8.45,0,0,.37,1.12,14.88,1.12s14.88-1.12,14.88-1.12C47.82,51.49,46.09,50.54,44.6,50.43Zm-5.84-.17c-4.53-.17-9-.17-13.52,0A36,36,0,0,1,38.76,50.26Zm-19.32,1.8a247.62,247.62,0,0,0,25.12,0A96,96,0,0,1,19.44,52.06Z"/><path class="cls-1" d="M18.59,45.83a3.2,3.2,0,0,0,.55.42,2.64,2.64,0,0,0,1.69.28l.52,0h.5a3.46,3.46,0,0,1,1.89.52l.37.22c1-.09,3.36-.27,7.89-.27s7,.18,7.92.27l.34-.22a3.46,3.46,0,0,1,1.89-.52h.5l.52,0a5.31,5.31,0,0,0,1.69-.28l.32-.1a13.86,13.86,0,0,0,2-7.22c.22-6-3.34-17-3.34-17-1.63,4.15-3.3,5-3.3,5,2.44-4.29,3.13-7.15,2.7-9.75-.28-1.7-2.26-2.48-5.36-2.83-1.18,1-3.21,1.19-5.83,1.19s-4.65-.22-5.83-1.19c-3.1.35-5.08,1.13-5.36,2.83-.43,2.6.26,5.46,2.7,9.75,0,0-1.67-.81-3.3-5,0,0-3.56,11-3.34,17C17,42.72,17.72,44.74,18.59,45.83Zm26-1.32c1.22-6.19,0-12.57-.94-18.69C45.2,31.72,46.4,38.5,44.63,44.51ZM27.44,24.71A9.12,9.12,0,1,1,24.1,37.17,9.12,9.12,0,0,1,27.44,24.71Zm-7.13,1.11c-1,6.12-2.16,12.5-.94,18.69C17.6,38.5,18.8,31.72,20.31,25.82Z"/><path class="cls-1" d="M31.26,31.5a1.33,1.33,0,1,0,1.85.37A1.33,1.33,0,0,0,31.26,31.5Z"/><path class="cls-1" d="M29.09,37.45c1.44.71,3.39.57,3.72-.14.22-.47-.08-.9-.77-1.75a1.46,1.46,0,0,1-.39-.92,2.08,2.08,0,0,1-1.38-.89,1.94,1.94,0,0,1-.25-.57,4.88,4.88,0,0,0-1.38.65,5.54,5.54,0,0,1-.45-1.71,5.52,5.52,0,0,0,.19,1.93,2.59,2.59,0,0,0-.54.62,5.51,5.51,0,0,1-.59-2,5.59,5.59,0,0,0,.39,2.51C27.46,36,27.88,36.84,29.09,37.45Z"/><path class="cls-1" d="M29.42,31.17a1.5,1.5,0,0,1,1,.12,2.46,2.46,0,0,1,.44-.41A2.15,2.15,0,0,1,32,30.54a2,2,0,0,1,.49.06,4.93,4.93,0,0,0,.13-1.51,5.5,5.5,0,0,1,1.71.46,5.8,5.8,0,0,0-1.77-.8A2.49,2.49,0,0,0,32.3,28a5.4,5.4,0,0,1,2,.49A5.63,5.63,0,0,0,32,27.55c-.6-.55-1.56-.63-2.7.12-1.33.89-2.19,2.65-1.74,3.29C27.82,31.39,28.34,31.34,29.42,31.17Z"/><path class="cls-1" d="M33.94,31.89A2.07,2.07,0,0,1,34,33a2.13,2.13,0,0,1-.53,1,4.9,4.9,0,0,0,1.23.86,5.16,5.16,0,0,1-1.25,1.26A5.68,5.68,0,0,0,35.06,35a2.42,2.42,0,0,0,.8.16,5.62,5.62,0,0,1-1.44,1.52,5.62,5.62,0,0,0,2-1.59c.78-.25,1.33-1,1.24-2.4-.1-1.6-1.19-3.22-2-3.15-.52,0-.73.52-1.12,1.54A1.51,1.51,0,0,1,33.94,31.89Z"/></g></svg>