<svg xmlns="http://www.w3.org/2000/svg" viewBox="0 0 64 64"><defs><style>.cls-1{fill:#231f20;}</style></defs><g id="_11_Navigation" data-name="11 Navigation"><path class="cls-1" d="M10.9,31.43c.1,1,.32-.34.14-.47s-.59,0-.87,0a6.5,6.5,0,0,0,.69.14S10.88,31.32,10.9,31.43Z"/><path class="cls-1" d="M10.9,26.43c.1,1,.32-.34.14-.47s-.59,0-.87,0a6.5,6.5,0,0,0,.69.14S10.88,26.32,10.9,26.43Z"/><path class="cls-1" d="M10.9,21.43c.1,1,.32-.34.14-.47s-.59,0-.87,0a6.5,6.5,0,0,0,.69.14S10.88,21.32,10.9,21.43Z"/><path class="cls-1" d="M10.9,16.43c.1,1,.32-.34.14-.47s-.59,0-.87,0a6.5,6.5,0,0,0,.69.14S10.88,16.32,10.9,16.43Z"/><path class="cls-1" d="M57,14a1,1,0,0,0-1-1H8a1,1,0,0,0-1,1V43H57ZM9,15.5a.5.5,0,0,1,.5-.5h2a.5.5,0,0,1,.5.5v2a.5.5,0,0,1-.5.5h-2a.5.5,0,0,1-.5-.5Zm0,5a.5.5,0,0,1,.5-.5h2a.5.5,0,0,1,.5.5v2a.5.5,0,0,1-.5.5h-2a.5.5,0,0,1-.5-.5Zm0,5a.5.5,0,0,1,.5-.5h2a.5.5,0,0,1,.5.5v2a.5.5,0,0,1-.5.5h-2a.5.5,0,0,1-.5-.5Zm0,5a.5.5,0,0,1,.5-.5h2a.5.5,0,0,1,.5.5v2a.5.5,0,0,1-.5.5h-2a.5.5,0,0,1-.5-.5ZM11.5,40A2.5,2.5,0,1,1,14,37.5,2.5,2.5,0,0,1,11.5,40ZM55,41H14.3a4.48,4.48,0,0,0-.3-7.24V15H55Z"/><path class="cls-1" d="M11.5,36A2,2,0,0,1,13,37.5,1.3,1.3,0,0,0,11.5,36Z"/><path class="cls-1" d="M18.05,29a.35.35,0,1,0,.35.35A.35.35,0,0,0,18.05,29Z"/><path class="cls-1" d="M17,37.5a5.4,5.4,0,0,1-.61,2.5H54V35c-3.65.71-5.89-6.6-8.4-6.38-3.07.26-3.51-.75-4.42-1.56-1.38-1.23-2.25.31-3.24-1.68s-1.73-3.21-2.48-2.58C34,24,33.68,22.74,33,23c-2.44.92-2.5-2-5.49-2.95-1.81-.59-3.36-.77-5.19-2.14C20.29,16.38,18,16,15,16V33.26A5.49,5.49,0,0,1,17,37.5Zm24.85-4.25h.67V30.87a.25.25,0,0,1,.12-.22.28.28,0,0,1,.25,0l1.53.81a.26.26,0,0,1,.13.23.24.24,0,0,1-.14.22L43,32.59v.66h.48a.25.25,0,0,1,0,.5H41.85a.25.25,0,1,1,0-.5Zm-2.67.25a.25.25,0,0,1,.25-.25h1.42a.25.25,0,0,1,0,.5H39.68v.33a.25.25,0,0,1-.5,0Zm-1.33,1.75h1.33v-.17a.25.25,0,0,1,.5,0v.42a.25.25,0,0,1-.25.25H37.85a.25.25,0,1,1,0-.5Zm-3,.56.19-.19a1.23,1.23,0,0,1,.88-.37h.94a.25.25,0,0,1,0,.5h-.94a.77.77,0,0,0-.53.22l-.19.2a.29.29,0,0,1-.18.07.26.26,0,0,1-.17-.07A.25.25,0,0,1,34.84,35.81Zm-2.09,1.92a.75.75,0,0,0,.37-.2l1-1a.25.25,0,0,1,.35.35l-1,1a1.24,1.24,0,0,1-.61.34H32.8a.25.25,0,0,1-.24-.2A.25.25,0,0,1,32.75,37.73ZM19.08,31.25h-2a.25.25,0,0,1-.25-.25.26.26,0,0,1,.25-.25h.72v-.62a.84.84,0,0,1,.25-1.65.85.85,0,0,1,.85.85.84.84,0,0,1-.6.8v.62h.78a.25.25,0,0,1,.25.25A.25.25,0,0,1,19.08,31.25Zm1.49,0h-.49a.25.25,0,0,1-.25-.25.26.26,0,0,1,.25-.25h.49a1.26,1.26,0,0,1,1.25,1.18.26.26,0,0,1-.24.27h0a.25.25,0,0,1-.25-.24A.76.76,0,0,0,20.57,31.25ZM23.16,34h-.59a1.25,1.25,0,0,1-1.24-1,.26.26,0,0,1,.21-.29.25.25,0,0,1,.29.21.75.75,0,0,0,.74.63h.59a.25.25,0,0,1,.25.25A.25.25,0,0,1,23.16,34Zm.76-.22a.25.25,0,0,1,.35-.07,1.26,1.26,0,0,1,.55,1v1a.25.25,0,0,1-.5,0v-1a.76.76,0,0,0-.33-.63A.24.24,0,0,1,23.92,33.82Zm5.88,3.93h2a.25.25,0,0,1,0,.5h-2a.25.25,0,1,1,0-.5Zm-3,0h2a.25.25,0,0,1,0,.5h-2a.25.25,0,1,1,0-.5Zm-.75.25a.25.25,0,0,1-.25.25h-.23A1.25,1.25,0,0,1,24.32,37v-.2a.25.25,0,0,1,.5,0V37a.76.76,0,0,0,.75.75h.23A.25.25,0,0,1,26.05,38Zm-9-12.26h.64l2.21-3.69a.18.18,0,0,1,.3,0l.78,1.3-1.43,2.39h.76l2.22-3.69a.17.17,0,0,1,.29,0l2.22,3.69h.68A.25.25,0,0,1,26,26a.25.25,0,0,1-.25.25H21.16l.95-2-1.45,2h-3.6a.25.25,0,0,1-.25-.25A.25.25,0,0,1,17.06,25.74Z"/><polygon class="cls-1" points="43.74 31.68 43.01 31.29 43.02 32.04 43.74 31.68"/><path class="cls-1" d="M43.68,24.68a1.47,1.47,0,0,1,1.86-.19l.64.43a1.94,1.94,0,0,0,1.1.33,2,2,0,0,0,1.4-.57.25.25,0,0,0-.36-.36,1.47,1.47,0,0,1-1.86.19l-.64-.43a2,2,0,0,0-2.5.24.25.25,0,0,0,.36.36Z"/><path class="cls-1" d="M48.32,26.32a1.46,1.46,0,0,1-1.71.27.25.25,0,0,0-.22.44,1.9,1.9,0,0,0,.9.22,2,2,0,0,0,1.39-.57.25.25,0,0,0-.36-.36Z"/><path class="cls-1" d="M43.5,26.75a.26.26,0,0,0,.18-.07,1.46,1.46,0,0,1,1.71-.27.25.25,0,1,0,.22-.44,2,2,0,0,0-2.29.35.27.27,0,0,0,0,.36A.26.26,0,0,0,43.5,26.75Z"/><path class="cls-1" d="M50.93,19.33l.57-1.23.57,1.23a.24.24,0,0,0,.22.14l.11,0a.25.25,0,0,0,.12-.33l-.79-1.72a.26.26,0,0,0-.46,0l-.79,1.72a.25.25,0,0,0,.12.33A.25.25,0,0,0,50.93,19.33Z"/><path class="cls-1" d="M51.5,20.75a2.25,2.25,0,1,0-2.25-2.25A2.25,2.25,0,0,0,51.5,20.75Zm0-4a1.75,1.75,0,1,1-1.75,1.75A1.76,1.76,0,0,1,51.5,16.75Z"/><path class="cls-1" d="M58,41v2a1,1,0,0,1-1,1H7a1,1,0,0,1-1-1V41s-2,1-2,1.82V47c0,3.69,3,4,3,4H57s3-.33,3-4V42.82C60,42,58,41,58,41Zm-1,8c-12.4,0-37.81.24-50-.1a364.33,364.33,0,0,1,50,0Z"/></g></svg>