<svg xmlns="http://www.w3.org/2000/svg" viewBox="0 0 64 64"><defs><style>.cls-1{fill:#231f20;}</style></defs><g id="_12_Parking_Sensor" data-name="12 Parking Sensor"><path class="cls-1" d="M28.41,17.49v-.86q0-.63-.69-.63H26.2v4h1.52q.69,0,.69-.63v-.94c0-.24-.08-.39-.26-.45C28.33,17.92,28.41,17.76,28.41,17.49Zm-.72,1.81c0,.06,0,.11,0,.13s-.07,0-.14,0h-.58V18.24h.58a.21.21,0,0,1,.14,0s0,.07,0,.14Zm0-1.76a.18.18,0,0,1,0,.14.22.22,0,0,1-.14,0h-.58V16.53h.58c.07,0,.12,0,.14,0s0,.07,0,.13Z"/><polygon class="cls-1" points="31.53 16.56 31.53 16 29.63 16 29.63 20 31.58 20 31.58 19.44 30.36 19.44 30.36 18.23 31.34 18.23 31.34 17.67 30.36 17.67 30.36 16.56 31.53 16.56"/><polygon class="cls-1" points="34.53 16.56 34.53 16 32.63 16 32.63 20 34.58 20 34.58 19.44 33.37 19.44 33.37 18.23 34.35 18.23 34.35 17.67 33.37 17.67 33.37 16.56 34.53 16.56"/><path class="cls-1" d="M37.11,18.53q.69,0,.69-.63V16.63q0-.63-.69-.63H35.64v4h.72V18.53Zm-.75-2h.53a.24.24,0,0,1,.14,0,.18.18,0,0,1,0,.14V17.8a.18.18,0,0,1,0,.14.24.24,0,0,1-.14,0h-.53Z"/><path class="cls-1" d="M24,13H22.5A2.5,2.5,0,0,0,20,15.5V17h1V15.5A1.5,1.5,0,0,1,22.5,14H24Z"/><path class="cls-1" d="M18,15.5A4.51,4.51,0,0,1,22.5,11H25V10H22.5A5.51,5.51,0,0,0,17,15.5V18h1Z"/><circle class="cls-1" cx="40.5" cy="16.5" r="0.5"/><circle class="cls-1" cx="23.5" cy="16.5" r="0.5"/><path class="cls-1" d="M44,17V15.5A2.5,2.5,0,0,0,41.5,13H40v1h1.5A1.5,1.5,0,0,1,43,15.5V17Z"/><path class="cls-1" d="M41.5,10H39v1h2.5A4.51,4.51,0,0,1,46,15.5V18h1V15.5A5.51,5.51,0,0,0,41.5,10Z"/><rect class="cls-1" x="17" y="4" width="30" height="3"/><rect class="cls-1" x="50" y="4" width="5" height="3"/><rect class="cls-1" x="9" y="4" width="5" height="3"/><rect class="cls-1" x="50" y="10" width="2" height="50"/><rect class="cls-1" x="12" y="10" width="2" height="50"/><path class="cls-1" d="M46,51c0-.88-.78-1.76-3-2.64V42c0-2.91,1-2,1-6s0-6-1-8c-.45-.89-6-5.41-6-4,0,1-1-1-5-1s-5,2-5,1c0-1.41-5.55,3.11-6,4-1,2-1,4-1,8s1,3.09,1,6v6.36c-2.22.88-3,1.76-3,2.64l3-.75V59a7.05,7.05,0,0,1-.06,1H23.2c-.27-3.65-.2-8.29-.2-12a51.41,51.41,0,0,1,1.82,12H39.18A51.41,51.41,0,0,1,41,48c0,3.71.07,8.35-.2,12h2.26A7.05,7.05,0,0,1,43,59V50.25ZM37,37l1,3H37ZM27,37v3H26Zm-3.63-9.91a1.7,1.7,0,0,1,.83-.64,5.07,5.07,0,0,1,.94-.17A2.47,2.47,0,0,0,26,26a1.37,1.37,0,0,1-.75.65c-.31.14-.63.18-.89.28a2.08,2.08,0,0,0-.7.41c-.23.19-.42.43-.66.66A2.19,2.19,0,0,1,23.37,27.09ZM41,45s-1,3-2,7a17.47,17.47,0,0,0-7-1,17.47,17.47,0,0,0-7,1c-1-4-2-7-2-7V42l4-1H37l4,1Zm-.66-17.66a2.08,2.08,0,0,0-.7-.41c-.26-.1-.58-.14-.89-.28A1.37,1.37,0,0,1,38,26a2.47,2.47,0,0,0,.86.28,5.07,5.07,0,0,1,.94.17,1.7,1.7,0,0,1,.83.64A2.19,2.19,0,0,1,41,28C40.76,27.77,40.57,27.53,40.34,27.34Z"/></g></svg>