<svg xmlns="http://www.w3.org/2000/svg" viewBox="0 0 64 64"><defs><style>.cls-1{fill:#231f20;}</style></defs><g id="_13_Backup_Camera" data-name="13 Backup Camera"><path class="cls-1" d="M13.42,41.87c-2.09,0-3.78,1.16-3.78,2.59s1.69,2.59,3.78,2.59,3.78-1.16,3.78-2.59S15.51,41.87,13.42,41.87Zm0,3.89c-1.05,0-1.89-.58-1.89-1.3s.84-1.29,1.89-1.29,1.89.58,1.89,1.29S14.46,45.76,13.42,45.76Z"/><path class="cls-1" d="M59.6,47.05H54.08a5.69,5.69,0,0,1-3.33,1,7,7,0,0,1-1.13-.1V50a2.19,2.19,0,0,0,2.19,2.18h6A2.18,2.18,0,0,0,60,50V46.21a1.28,1.28,0,0,1-.11.27Z"/><path class="cls-1" d="M47.42,41.87H16.75a3.23,3.23,0,0,1,1.45,2.59A3,3,0,0,1,17.73,46H46.44A3,3,0,0,1,46,44.46,3.2,3.2,0,0,1,47.42,41.87Z"/><path class="cls-1" d="M10.09,47.05H4.4l-.28-.57A1.28,1.28,0,0,1,4,46.21V50A2.18,2.18,0,0,0,6.19,52.2h6A2.19,2.19,0,0,0,14.38,50V48a6,6,0,0,1-1,.07A5.67,5.67,0,0,1,10.09,47.05Z"/><path class="cls-1" d="M8.15,46s0-5.19,4.15-5.19H51.7a3.65,3.65,0,0,1,3.46,2.22h0a7.81,7.81,0,0,1,.69,3H59c1.18-2.38,1-7.26,1-9.34a56.35,56.35,0,0,0-.47-7.23c-.61-4.23-.89-3.85-3.67-6.25-2.23-1.91-6.63-9-8.7-10.08S38.22,11.8,32,11.8s-13.08.28-15.15,1.32-6.47,8.17-8.7,10.08c-2.78,2.4-3.06,2-3.67,6.25A56.35,56.35,0,0,0,4,36.68c0,2.08-.15,7,1,9.34ZM32,38.76a7.26,7.26,0,1,1,7.26-7.26A7.26,7.26,0,0,1,32,38.76Zm25.78-1.14c-6-.07-12,.16-18,.1,5.76-.21,11.47-.69,17.23-.91a16.78,16.78,0,0,0-.09-2.66l1-.11A17.83,17.83,0,0,1,57.78,37.62ZM40.35,27.35a7.64,7.64,0,0,1,0,8.3A12.26,12.26,0,0,0,40.35,27.35Zm17.57,2.51a.6.6,0,0,1-.6.6H50.66c-3.11,0-7.26-4.14-6.22-4.14H56.89C57.75,27.18,57.89,28.76,57.92,29.86ZM16.45,14.91c4.14-1,11.4-1,15.55-1h0c4.15,0,11.41,0,15.55,1,0,0,6.44,6.55,4.15,6.22a131.83,131.83,0,0,0-19.7-1,131.83,131.83,0,0,0-19.7,1C10,21.46,16.45,14.91,16.45,14.91ZM32,22.31c8,.26,16,0,23.86,1.88l0,.1C48,23.07,39.92,23.47,32,23.3c-7.9.06-16.2-.19-23.86.89C15.91,22.13,24,22.56,32,22.31ZM23.64,35.65a7.66,7.66,0,0,1,0-8.3A12.32,12.32,0,0,0,23.64,35.65ZM7.11,26.32H19.55c1,0-3.1,4.14-6.21,4.14H6.68a.6.6,0,0,1-.6-.6C6.11,28.76,6.25,27.18,7.11,26.32ZM6.1,34l1,.11A16.78,16.78,0,0,0,7,36.81c5.76.22,11.47.7,17.23.91-6,.06-12-.17-18-.1A17.83,17.83,0,0,1,6.1,34Z"/><path class="cls-1" d="M54.53,44.46c0-1.43-1.69-2.59-3.78-2.59S47,43,47,44.46s1.69,2.59,3.78,2.59S54.53,45.89,54.53,44.46Zm-5.67,0c0-.71.84-1.29,1.89-1.29s1.89.58,1.89,1.29-.85,1.3-1.89,1.3S48.86,45.18,48.86,44.46Z"/><path class="cls-1" d="M13.34,29.43a35.42,35.42,0,0,0-6-.21,5.69,5.69,0,0,1,.27-1.87,4.3,4.3,0,0,0-.67,2.06l0,.2A36.27,36.27,0,0,0,13.34,29.43Z"/><path class="cls-1" d="M56.86,29.62h.22a4.71,4.71,0,0,0-.69-2.26,5.69,5.69,0,0,1,.27,1.87,34.41,34.41,0,0,0-6,.21A34.72,34.72,0,0,0,56.86,29.62Z"/><path class="cls-1" d="M32,28.5a3,3,0,1,0,3,3A3,3,0,0,0,32,28.5Zm0,5.13a2.13,2.13,0,1,1,2.12-2.13A2.14,2.14,0,0,1,32,33.63Z"/><path class="cls-1" d="M32,30.5a1,1,0,0,1,.44-.82,2.12,2.12,0,0,0-.44-.05,1.88,1.88,0,1,0,1.87,1.87,1.61,1.61,0,0,0-.06-.44,1,1,0,0,1-.81.44A1,1,0,0,1,32,30.5Zm-.67,2a.33.33,0,0,1-.33-.33.32.32,0,0,1,.33-.32.32.32,0,0,1,.32.32A.32.32,0,0,1,31.33,32.5Z"/><path class="cls-1" d="M32,26.5a5,5,0,1,0,5,5A5,5,0,0,0,32,26.5ZM32,35a3.5,3.5,0,1,1,3.5-3.5A3.5,3.5,0,0,1,32,35Z"/></g></svg>