<svg xmlns="http://www.w3.org/2000/svg" viewBox="0 0 64 64"><defs><style>.cls-1{fill:#231f20;}</style></defs><g id="_14_AUX_Cable" data-name="14 AUX Cable"><polygon class="cls-1" points="59 4 58.41 4.97 58.12 4.88 57.91 5.09 58.91 6.09 59.12 5.88 59.05 5.62 60 5 60 4 59 4"/><rect class="cls-1" x="56.89" y="5.83" width="1.15" height="1.41" transform="translate(12.21 42.55) rotate(-45)"/><polygon class="cls-1" points="4.88 58.12 4.95 58.38 4 59 4 60 5 60 5.59 59.03 5.88 59.12 6.09 58.91 5.09 57.91 4.88 58.12"/><rect class="cls-1" x="5.96" y="56.76" width="1.15" height="1.41" transform="translate(-38.72 21.45) rotate(-45)"/><path class="cls-1" d="M56.08,38.34a21.55,21.55,0,0,0-6.59-3.15A5.81,5.81,0,0,0,49.62,34a4.36,4.36,0,0,0-1.91-3.76,6.84,6.84,0,0,0-2.31-1,3.78,3.78,0,0,0-.17-.35,7.67,7.67,0,0,0-1.88-2.11c-1.16-1-2.08-1.78-1.49-4.17.07-.27.34-.32,1.1-.33a2.53,2.53,0,0,0,1.81-.49,3.5,3.5,0,0,0,.74-1.31,11.56,11.56,0,0,1,3-4.4l.25.24a.22.22,0,0,0,.32,0l.6-.6.15.15a.22.22,0,0,0,.3,0l5.7-5.7a.22.22,0,0,0,0-.3L55.5,9.5,57,8,56,7,54.5,8.5l-.35-.35a.22.22,0,0,0-.3,0l-5.7,5.7a.22.22,0,0,0,0,.3l.15.15-.6.6a.22.22,0,0,0,0,.32l.3.31a12.27,12.27,0,0,0-3.19,4.66,2.6,2.6,0,0,1-.58,1c-.26.27-.78.27-1.28.28-.71,0-1.59,0-1.81.9-.72,2.84.53,3.9,1.72,4.92a7.23,7.23,0,0,1,1.61,1.73,10.93,10.93,0,0,0-2.74,0,7.84,7.84,0,0,0-2-2.63,6.79,6.79,0,0,0-4.55-1.54A9.52,9.52,0,0,0,35,21.84a7.46,7.46,0,0,0-2.92-4.7c.42-3.62,0-9.17-2.1-11.71A3.22,3.22,0,0,0,27.5,4.12c-1.7,0-3.44,1-5,2.74-2.91,3.25-4.77,8.7-4.33,12.68a11.54,11.54,0,0,0,.18,1.22,18.46,18.46,0,0,0-5.9.38C8.15,22.2,4.12,25.29,4.12,27.5c0,3.67,8.25,5.62,8.33,5.63a27.31,27.31,0,0,0,4.67.63,14.09,14.09,0,0,0-1,6.78,11.24,11.24,0,0,0,1.67,5.13L15.5,48l-.28-.27a.22.22,0,0,0-.32,0l-.6.6-.15-.15a.22.22,0,0,0-.3,0l-5.7,5.7a.22.22,0,0,0,0,.3l.35.35L7,56l1,1L9.5,55.5l.35.35a.22.22,0,0,0,.3,0l5.7-5.7a.22.22,0,0,0,0-.3l-.15-.15.6-.6a.22.22,0,0,0,0-.32L16,48.5l2.22-2.22a8.51,8.51,0,0,0,2.46,2.11A10.25,10.25,0,0,0,24,49.56c1.09,4.25,4.76,10.32,9.48,10.32a3.32,3.32,0,0,0,2.4-1.16c2.15-2.22,3.38-7.2,3.75-10.68a27.6,27.6,0,0,0,7.85.84c6.85,0,12.38-3,12.38-5.38C59.88,42,58.49,40.08,56.08,38.34Zm-10.4-8.28a6.23,6.23,0,0,1,1.61.75A3.63,3.63,0,0,1,48.87,34a5.35,5.35,0,0,1-.11,1,19.93,19.93,0,0,0-3.7-.57A7,7,0,0,0,45.68,30.06ZM24.73,37.19c0-.2.09-.4.14-.6a28.36,28.36,0,0,1,1.22-3.88,26.73,26.73,0,0,0,3.57-1.3h0a8,8,0,0,0,.86,3.17l-.36.31a4.59,4.59,0,0,0-1.43,1.73,5.92,5.92,0,0,0-.62,1.81,7.56,7.56,0,0,0-.09.79A11.18,11.18,0,0,1,24.73,37.19ZM28,40c-.13,1.55-.37,3.45-1.61,4-.35.14-.57-.1-1.09-1a4.16,4.16,0,0,0-1.14-1.38A30.83,30.83,0,0,1,24.56,38,11,11,0,0,0,28,40Zm.33-12.16.27-.56a7.25,7.25,0,0,1,1.8.56,6.78,6.78,0,0,0-.69,2.56c0,.06,0,.12,0,.18l-.31.15a28.2,28.2,0,0,1-2.9,1.09C27,30.45,27.68,29.13,28.31,27.84Zm-2.89.94A5.6,5.6,0,0,1,23.53,28l.22-.11a7.67,7.67,0,0,1,3.52-.75,1.81,1.81,0,0,1-.1,1.18C27,28.76,26.28,28.93,25.42,28.78Zm2.74-2.34-.33,0a9.49,9.49,0,0,0-4.16-4.24,10,10,0,0,0-1.21-.52l.48-.55c.33-.39.66-.76,1-1.14,1.6-1.93,4.31-3.52,6.76-2.71a4.59,4.59,0,0,1,.64.28c0,.21-.07.42-.11.63A34.71,34.71,0,0,1,28.16,26.44Zm-4.83-3.61A9.42,9.42,0,0,1,27,26.38a8.7,8.7,0,0,0-3.57.85l-.59.3a9.4,9.4,0,0,1-2.49-3,16.37,16.37,0,0,1,1.6-2.24A11.54,11.54,0,0,1,23.33,22.83ZM20,23.7a13.2,13.2,0,0,1-.7-2.07,15,15,0,0,1,1.91.39A16.63,16.63,0,0,0,20,23.7Zm2.17,4.24a12.65,12.65,0,0,0-2.53,2,6.52,6.52,0,0,1,.33-4.69A10.21,10.21,0,0,0,22.13,27.94Zm-2.79,3.48A13.14,13.14,0,0,0,20.16,33q-.93.06-1.86.06A11.7,11.7,0,0,1,19.34,31.42Zm.53-.64a12.22,12.22,0,0,1,2.9-2.35,6.43,6.43,0,0,0,2.52,1.09,3.35,3.35,0,0,0,1.38,0c-.39.84-.78,1.7-1.14,2.58a27.71,27.71,0,0,1-4.54.83A13,13,0,0,1,19.87,30.78Zm12.34-1.73a9.88,9.88,0,0,1-1.75,1.14,6.05,6.05,0,0,1,.59-2A6.12,6.12,0,0,1,32.21,29.05Zm-.76-1.51a1.33,1.33,0,0,1,.14-.19,4.54,4.54,0,0,1,2.7-1.57,6,6,0,0,1-.87,2,5.58,5.58,0,0,1-.65.79A7.91,7.91,0,0,0,31.45,27.54Zm1.28,2.06A6.63,6.63,0,0,1,34,32.1,19.67,19.67,0,0,0,32,33.46l-.34.26-.49.38a7.11,7.11,0,0,1-.72-3A11.86,11.86,0,0,0,32.73,29.6ZM35.41,38a6.63,6.63,0,0,1-1.15-.52,7.75,7.75,0,0,0,.64-1.94,8.15,8.15,0,0,1,1.63,1.31A10,10,0,0,0,35.41,38ZM37,37.39a9.1,9.1,0,0,1,.67.94,6.63,6.63,0,0,1-1.48-.13A7.74,7.74,0,0,1,37,37.39Zm-2.94-3.08a4.48,4.48,0,0,0-1.46-.25h-.19a16,16,0,0,1,1.76-1.19,7.66,7.66,0,0,1,.09,1.51ZM31.62,35a3.39,3.39,0,0,1,2.22.05l.37.14a7,7,0,0,1-.59,1.9A7.66,7.66,0,0,1,31.62,35Zm1.63,2.75a5.12,5.12,0,0,1-.4.55,3.6,3.6,0,0,1-2.79,1.33,4.43,4.43,0,0,1-1.28-.15A7.49,7.49,0,0,1,29.4,37a5.38,5.38,0,0,1,1.24-1.51,2.61,2.61,0,0,1,.3-.2A8.49,8.49,0,0,0,33.25,37.72Zm-3.18,2.63a4.29,4.29,0,0,0,3.36-1.6c.17-.21.32-.42.46-.63a7.6,7.6,0,0,0,1,.49,4,4,0,0,0-.81,1.89A1.31,1.31,0,0,0,35,41.66a7.93,7.93,0,0,0,3.58.59,15.86,15.86,0,0,1-3.28,3.32c-2.83-1.2-6.58-2.94-6.52-5.36A5.18,5.18,0,0,0,30.07,40.35ZM35.3,41c-.28-.15-.42-.32-.42-.5a3.66,3.66,0,0,1,.8-1.65,7.76,7.76,0,0,0,2.39.22,9.66,9.66,0,0,1,.67,2.42A7.68,7.68,0,0,1,35.3,41Zm3.22-2.73a8.75,8.75,0,0,0-.92-1.35,6.94,6.94,0,0,1,2-1.06,11.73,11.73,0,0,1,1.94-.49c-.19.76-.4,1.48-.64,2.17A7.84,7.84,0,0,1,38.52,38.27Zm3-.17a8,8,0,0,0,3.15-2.94,18.91,18.91,0,0,1,3.9.56,8.2,8.2,0,0,1-3.24,4.1A12.68,12.68,0,0,1,40,41.41,19.74,19.74,0,0,0,41.52,38.1Zm3.33-8.23a6,6,0,0,1-.56,4.42l-.06.12a16.5,16.5,0,0,0-1.72.08A9.47,9.47,0,0,0,42,29.81,9.85,9.85,0,0,1,44.85,29.87Zm-2.49,5.38q.7-.07,1.41-.09A7.4,7.4,0,0,1,41.89,37C42.06,36.42,42.21,35.85,42.36,35.25Zm-.63-.67a14.86,14.86,0,0,0-2.35.56,8,8,0,0,0-2.27,1.22A8.75,8.75,0,0,0,35,34.72a7.93,7.93,0,0,0-.12-2.23c1.24-.67,2.53-1.24,3.8-1.79a12,12,0,0,1,2.6-.78A8.74,8.74,0,0,1,41.73,34.58Zm-6.65-8.9A5.94,5.94,0,0,1,39.27,27,6.91,6.91,0,0,1,41,29.22a12.54,12.54,0,0,0-2.58.79c-1.23.54-2.48,1.08-3.69,1.73a7.22,7.22,0,0,0-1.41-2.65,6.89,6.89,0,0,0,.76-.92A6.75,6.75,0,0,0,35.08,25.68ZM32,18a7.21,7.21,0,0,1,2.32,4,9,9,0,0,1,.14,3A5.39,5.39,0,0,0,31,26.88l-.22.3a8.57,8.57,0,0,0-1.85-.62,34,34,0,0,0,3-8.26ZM23,7.36A6.3,6.3,0,0,1,27.5,4.88a2.45,2.45,0,0,1,1.93,1C31.14,8,31.8,13,31.4,16.74l-.5-.2c-2.79-.93-5.81.81-7.57,2.95-.31.36-.63.74-1,1.11l-.68.79a18.57,18.57,0,0,0-2.61-.54c-.08-.44-.15-.9-.21-1.39C18.45,15.67,20.23,10.47,23,7.36Zm-10.39,25C11,32,4.88,30.13,4.88,27.5c0-1.63,3.63-4.62,7.71-5.64a16.92,16.92,0,0,1,3.9-.43,19,19,0,0,1,2,.1,13.54,13.54,0,0,0,1,3A7.46,7.46,0,0,0,19,30.6,13,13,0,0,0,17.46,33,26.28,26.28,0,0,1,12.62,32.4Zm8.46,15.34a7.88,7.88,0,0,1-2.3-2l2.37-2.37c.91-.91,1.65-1.34,2.18-1.28h0a27.67,27.67,0,0,0,.48,6.67A9.63,9.63,0,0,1,21.08,47.74Zm2.32-6.39c-.78-.08-1.67.4-2.78,1.5l-2.27,2.27a10.64,10.64,0,0,1-1.48-4.66,13.37,13.37,0,0,1,1.06-6.67c.9,0,1.8,0,2.69-.09a21.81,21.81,0,0,0,1.6,2,21.25,21.25,0,0,0,1.69,1.72A31.44,31.44,0,0,0,23.4,41.35Zm-.62-6.1c-.49-.56-.93-1.11-1.3-1.63A27.91,27.91,0,0,0,25.2,33a29.74,29.74,0,0,0-1.07,3.46c0,.07,0,.14,0,.2A17.07,17.07,0,0,1,22.78,35.25Zm1.31,7.34a7,7,0,0,1,.55.8c.45.74,1,1.65,2,1.25A3.41,3.41,0,0,0,28.47,42c1.09,1.82,3.79,3.14,6.07,4.12a24.82,24.82,0,0,1-3.67,2.05,12.32,12.32,0,0,1-6.23.78A26.16,26.16,0,0,1,24.09,42.59ZM35.36,58.2a2.63,2.63,0,0,1-1.86.92c-4,0-7.52-5.31-8.67-9.44a13,13,0,0,0,6.35-.87,24.36,24.36,0,0,0,4.18-2.39l.18.08.81.34c.91.39,1.75.72,2.57,1C38.58,51.15,37.4,56.1,35.36,58.2ZM39,47.05c-.74-.24-1.5-.54-2.33-.89l-.6-.26A16.28,16.28,0,0,0,38.91,43c.05.71.07,1.43.09,2.14v.6C39,46.12,39,46.56,39,47.05ZM38.85,39a8.36,8.36,0,0,0,1.7-.45,18.58,18.58,0,0,1-1.15,2.37A9.8,9.8,0,0,0,38.85,39Zm8.65,9.13a26.47,26.47,0,0,1-7.78-.84,14.16,14.16,0,0,0,0-1.55v-.6c0-1-.06-2-.16-2.92a13.72,13.72,0,0,0,6.15-1.77,8.87,8.87,0,0,0,3.56-4.53,21.08,21.08,0,0,1,6.34,3c2.15,1.55,3.48,3.3,3.48,4.56C59.12,45.09,54.6,48.12,47.5,48.12Z"/></g></svg>