<svg xmlns="http://www.w3.org/2000/svg" viewBox="0 0 64 64"><defs><style>.cls-1{fill:#231f20;}</style></defs><g id="_15_Bluetooth" data-name="15 Bluetooth"><polygon class="cls-1" points="32.38 40.78 32.38 43.79 34.38 42.28 32.38 40.78"/><polygon class="cls-1" points="32.38 45.28 32.38 48.29 34.38 46.79 32.38 45.28"/><path class="cls-1" d="M40.87,35.87l-4.49-3a1,1,0,0,0,0-.17l5.2-.91a.67.67,0,0,0,.42-.27L52,17.71,41.07,30.38l-4.91.47,0-.1,2.66-3.54a.71.71,0,0,0,.16-.34L42.5,4l-5,22.35-2.12,2.44a5.66,5.66,0,0,0-1.67-1.9v-.25a3.58,3.58,0,0,0-1.17-2.72,5.27,5.27,0,0,1,.25,2.54,2.4,2.4,0,0,0-1.5,0,5.27,5.27,0,0,1,.25-2.54,3.58,3.58,0,0,0-1.17,2.72v.25a5.66,5.66,0,0,0-1.67,1.9l-2.12-2.44L21.5,4l3.55,22.87a.67.67,0,0,0,.16.34l2.66,3.54,0,.1-4.91-.47L12,17.71,22,31.53a.66.66,0,0,0,.42.27h.06l5.14.9a1,1,0,0,0,0,.17l-4.49,3-5.66.84-4.42-3.64,4.12,4.19a.27.27,0,0,0,.23.08l6-.25a.46.46,0,0,0,.2-.05l.06,0,4.09-2.15-2,1.71c-.53.46-1.9,1.64-2.4,2.1-.26.27-.67.5-.77.91l-.06.31-1.45,8.34a.48.48,0,0,0,0,.17L24,60c-.12-.58-1.94-11.27-2.05-11.61l2-8.18,0-.08c.6-.47,1.35-1,2.14-1.64a12.77,12.77,0,0,0-2.1,7,9,9,0,0,0,7.56,8.84,2.46,2.46,0,0,0,.47.4,2.46,2.46,0,0,0,.47-.4A9,9,0,0,0,40,45.43a12.77,12.77,0,0,0-2.1-7c.8.6,1.54,1.17,2.14,1.64l0,.08,2,8.14L40,60l2.88-11.61a.48.48,0,0,0,0-.17l-1.45-8.34c0-.06-.06-.34-.08-.39A1.13,1.13,0,0,0,41,39c-1.27-1.18-3.22-2.83-4.82-4.19L40.32,37l.06,0a.46.46,0,0,0,.2.05l6,.25a.26.26,0,0,0,.23-.08L51,33.07l-4.42,3.64Zm-6.79-7.06a.25.25,0,1,1-.25.25A.25.25,0,0,1,34.08,28.81Zm-.94-1.29a.57.57,0,0,1,.57.57.57.57,0,0,1-1.13,0A.57.57,0,0,1,33.14,27.52Zm-2.28,0a.57.57,0,0,1,.56.57.57.57,0,0,1-1.13,0A.57.57,0,0,1,30.86,27.52Zm-.94,1.29a.25.25,0,1,1-.24.25A.25.25,0,0,1,29.92,28.81ZM32,52.94A6.54,6.54,0,0,1,28.19,51,10.44,10.44,0,0,0,32,52.44,10.58,10.58,0,0,0,35.81,51l0,0A7.09,7.09,0,0,1,32,52.94ZM28.77,42.58a.38.38,0,0,1,.45-.6l2.4,1.81V40a.64.64,0,0,1,0-.07l0-.07,0,0,0,0,.06,0a.15.15,0,0,1,.06,0l.05,0,.09,0h.14l.07,0h0l3,2.25a.4.4,0,0,1,.15.3.38.38,0,0,1-.15.3l-2.61,2,2.61,2a.37.37,0,0,1,0,.6l-3,2.25h0a.43.43,0,0,1-.2.06.41.41,0,0,1-.16,0l0,0a.22.22,0,0,1-.09-.07s0,0,0,0l0,0,0-.08a.64.64,0,0,1,0-.07v-3.8l-2.4,1.81a.34.34,0,0,1-.22.07.36.36,0,0,1-.3-.15.37.37,0,0,1,.07-.52l2.61-2Zm8.92-2.12a9.27,9.27,0,0,0-2.35-2.77c-.46-.3-.93-.75-1.5-.74l-1.84,0-1.84,0c-1.73.36-2.93,2.06-3.85,3.51.61-1.48,1.75-3.27,3.35-3.83a6.3,6.3,0,0,1-.61-5.91c-.51,1.93-.38,4.31,1.11,5.76L32,36.42l1.84.06C35.33,35,35.46,32.65,35,30.72a6.31,6.31,0,0,1-.58,5.86,4.55,4.55,0,0,1,1.22.81A7.78,7.78,0,0,1,37.69,40.46Z"/></g></svg>