<svg xmlns="http://www.w3.org/2000/svg" viewBox="0 0 64 64"><defs><style>.cls-1{fill:#231f20;}</style></defs><g id="_16_USB_Charger" data-name="16 USB Charger"><path class="cls-1" d="M17.6,6a.15.15,0,0,1,.15-.15h.34v-.7h-.34A.15.15,0,0,1,17.6,5V4H16.5V7h1.1Z"/><path class="cls-1" d="M18.39,5V6a.15.15,0,0,1-.15.15H17.9V7h1.6V4H17.9v.85h.34A.15.15,0,0,1,18.39,5Z"/><path class="cls-1" d="M48.5,4h-5V9h5Zm-3,2.74a.11.11,0,0,1-.11.11h-.78a.11.11,0,0,1-.11-.11V6.26a.11.11,0,0,1,.11-.11h.78a.11.11,0,0,1,.11.11Zm2,0a.11.11,0,0,1-.11.11h-.78a.11.11,0,0,1-.11-.11V6.26a.11.11,0,0,1,.11-.11h.78a.11.11,0,0,1,.11.11Z"/><path class="cls-1" d="M53,42.39c-.54-1.57-1.27-2.42-2.16-2.52a1.93,1.93,0,0,0-1.46.5,5.89,5.89,0,0,1-.94-1,5.11,5.11,0,0,0,1.69-2.72c0-.21.43-2-.43-2.45s-1.84.66-2.29,1.54a3.68,3.68,0,0,0-.26,2.46,4.43,4.43,0,0,0,.31,1,10.54,10.54,0,0,1-2.68,1.36c-1.21.43-1.48.24-1.48.24-.31-.27-.1-1.43.47-2.7A11,11,0,0,1,46,35a10.62,10.62,0,0,0,2.57-3.72c.23-.6.4-1.25,0-1.56s-1.65-.11-3.41,1.77a4.63,4.63,0,0,1-1.88,1.31,2.66,2.66,0,0,1,.81-1.2,7.91,7.91,0,0,0,1.62-2.29A8.15,8.15,0,0,0,46.38,26V20H47a.5.5,0,0,0,.5-.5V18h1.75a.25.25,0,0,0,.25-.25v-7.5a.25.25,0,0,0-.25-.25h-6.5a.25.25,0,0,0-.25.25v7.5a.25.25,0,0,0,.25.25H44.5v1.5a.5.5,0,0,0,.5.5h.62v6a7.3,7.3,0,0,1-.56,3,7.29,7.29,0,0,1-1.48,2.08,3.09,3.09,0,0,0-1,1.67.66.66,0,0,0,.32.74c.74.36,2.14-.72,2.86-1.49,1.41-1.51,2.15-1.66,2.35-1.68a2.63,2.63,0,0,1-.19.69,9.86,9.86,0,0,1-2.41,3.47,11.69,11.69,0,0,0-2.44,3.34c-.37.82-1.15,2.82-.28,3.57.38.33,1.11.3,2.22-.1a11.19,11.19,0,0,0,2.82-1.42,6.2,6.2,0,0,0,1,1,7.12,7.12,0,0,0-.55.74,7.19,7.19,0,0,0-.66,6,1.73,1.73,0,0,0,1,1.18c.86.23,1.68-.83,2-1.22a5.17,5.17,0,0,0,.82-4.46,4.64,4.64,0,0,0-1.53-2.29,1.13,1.13,0,0,1,.79-.26c.33,0,1,.35,1.54,2,1,3-.59,6.28-2.28,8.21a7.26,7.26,0,0,1-3.16,2.35,2.48,2.48,0,0,1,.13-.71,7.24,7.24,0,0,0,.23-3.22c-.08-.43-.51-2.57-1.66-2.71a1.21,1.21,0,0,0-1,.52,4.13,4.13,0,0,0-3.62-1.65,3.83,3.83,0,0,0-2.41,1.41A1.62,1.62,0,0,0,38.08,48,1.71,1.71,0,0,0,39,49.17L37.43,52a11.67,11.67,0,0,1-1.74,2.32c.82-1.49,2-3.8,1.12-5.55a2.41,2.41,0,0,0-1.35-1.24c-.62-.2-2-.13-4.49,2.55A21.43,21.43,0,0,0,28.13,54c.2-.56.42-1.19.69-1.87.69-1.79,1.34-3.19,1.77-4.11.58-1.25.67-1.45.31-1.64l-.16-.08-.16,0c-.5.16-2.65,2.93-4.17,6.15l-.05.09a9.62,9.62,0,0,1-3.16,4.15c-.48.29-.62.23-.63.22s-.07-.5-.07-.8a10.08,10.08,0,0,0-.08-1.64c0-.23-.06-.48-.1-.73l.09,0a7.79,7.79,0,0,0,4.09-4.27c.37-1,.83-2.76-.15-3.71s-3-.31-3.63-.08a7,7,0,0,0-.92.41,3.47,3.47,0,0,0-.27-1.16.79.79,0,0,0-.51-.45c-.71-.18-1.43.81-3,3.06-1.4,2-3.15,4.53-4.74,5.37a1.14,1.14,0,0,1-.94.18c-.57-.24-.77-1.51-.57-2.48a3.35,3.35,0,0,1,.3-.83,2.49,2.49,0,0,0,.18.84c.14.31.28.63.61.73a.77.77,0,0,0,.56-.1c.82-.47,2.07-2.78,3.11-5.57a10.06,10.06,0,0,0,3.34-2.16c1.67-1.64,2.34-3.26,1.88-4.56a3,3,0,0,0-1.38-1.53,3.07,3.07,0,0,0-1.89-.27,1,1,0,0,0-.5-.88,1,1,0,0,0-.77,0,7.24,7.24,0,0,0-2.61,3,6.22,6.22,0,0,1-1.54,1.14A3.8,3.8,0,0,1,11.6,41a4,4,0,0,1,.71-2,11.7,11.7,0,0,1,3.49-3.63c.71-.48,3-2.15,2.52-3-.1-.19-.36-.45-1.06-.19a28.24,28.24,0,0,0-3,1.3,4.52,4.52,0,0,1-1.69.65c-.09-.31,1-1.57,2.07-2.3l.85-.56A5.48,5.48,0,0,0,18,28.73,4.37,4.37,0,0,0,18.38,27c0-2,0-4.4,0-7H19a.5.5,0,0,0,.5-.5V17H20a.5.5,0,0,0,.5-.5v-7A.5.5,0,0,0,20.16,9V8.25A.25.25,0,0,0,19.91,8H16.09a.25.25,0,0,0-.25.25V9a.5.5,0,0,0-.34.47v7a.5.5,0,0,0,.5.5h.5v2.5a.5.5,0,0,0,.5.5h.64c0,2.56,0,5,0,7a3.59,3.59,0,0,1-.26,1.46c-.46,1-1.06,1.39-2.26,2.16l-.86.57c-.67.45-2.49,2-2.4,3a.75.75,0,0,0,.48.63c.27.12.73.12,2.3-.67a26,26,0,0,1,2.9-1.27,8.26,8.26,0,0,1-2.14,1.92,12.37,12.37,0,0,0-3.69,3.84S10.32,40.73,11,41.5c.53.55,1.6,0,2.4-.46a5.15,5.15,0,0,0,.48-.27l-.09.28c-.28.86-1.12,3.47.11,4.5a2,2,0,0,0,1.69.33c-1,2.6-2.09,4.42-2.56,4.67,0-.07-.09-.19-.13-.28a2,2,0,0,1,0-1.25c0-.23.11-.58-.2-.72l-.25-.06-.16.08A3.3,3.3,0,0,0,11,50.41c-.24,1.11-.07,2.88,1,3.34a1.83,1.83,0,0,0,1.58-.22c1.75-.93,3.56-3.52,5-5.6a15.68,15.68,0,0,1,2.16-2.78,2.48,2.48,0,0,1,.29,1.34,10.64,10.64,0,0,0-3.2,3.89c-1.43,2.69-2.08,6-1.69,7.12a.78.78,0,0,0,.42.48.67.67,0,0,0,.57,0c.84-.36,2.11-2.24,3-4.08a2.6,2.6,0,0,0,1.4.08l.09.62a9.6,9.6,0,0,1,.07,1.53c0,.67,0,1.2.45,1.46a1.42,1.42,0,0,0,1.39-.23A10.33,10.33,0,0,0,27,52.86l.05-.09a27.39,27.39,0,0,1,2.28-4c-.36.81-.8,1.82-1.25,3-2,5.26-1.55,5.45-1.31,5.55.39.15.53-.16.87-.89a23.27,23.27,0,0,1,3.84-5.93c1.84-2,3.13-2.52,3.71-2.34a1.71,1.71,0,0,1,.91.87c.75,1.49-.5,3.75-1.24,5.1-.52.95-.76,1.38-.36,1.66s.86-.17,1.58-.91a12.41,12.41,0,0,0,2-2.62c.36-.64.9-1.6,1.4-2.47q-.12.35-.27.72c-.5,1.32-1,2.4-1.35,3.27-.86,2-1.3,3-.71,3.56.28.29.84.34,1.75.16,1.48-.3,5-1.37,6.3-4.89a5.72,5.72,0,0,0,0-4.44c-.09-.17-.18-.35-.29-.52l0,0c.26-.29.39-.4.48-.38.43.05.86,1.25,1,2.1a6.28,6.28,0,0,1-.22,2.9c-.16.64-.29,1.14.11,1.45.85.66,3-1,4.21-2.41C52.36,49.25,54.09,45.65,53,42.39Zm-8-28a.12.12,0,0,1,0-.1v-.45a.32.32,0,0,1-.21-.28.33.33,0,0,1,.66,0,.32.32,0,0,1-.21.28v.39l.76.62V12.14h-.21l.33-.66.33.66h-.21V14l.76-.62v-.34h-.21V12.4h.66v.66h-.21v.4a.12.12,0,0,1,0,.1l-1,.78v1.2a.5.5,0,1,1-.24,0V15.2ZM48,38.7a4,4,0,0,1-.19-.64,2.93,2.93,0,0,1,.2-2,2.32,2.32,0,0,1,1.27-1.21h0a2.39,2.39,0,0,1,0,1.61A4.3,4.3,0,0,1,48,38.7Zm2.7,4.67A4.37,4.37,0,0,1,50,47.16c-.72.91-1.07,1-1.21,1s-.36-.25-.54-.73A6.48,6.48,0,0,1,48.88,42a7.09,7.09,0,0,1,.49-.66A4.1,4.1,0,0,1,50.73,43.37ZM18.49,37.88a2.37,2.37,0,0,1,1.54.18,2.21,2.21,0,0,1,1,1.11c.35,1-.26,2.37-1.7,3.78a9.74,9.74,0,0,1-2.47,1.73c.26-.78.51-1.58.71-2.38A26.35,26.35,0,0,0,18.49,37.88Zm-.86-1h0a.6.6,0,0,1,.11.37,7.24,7.24,0,0,0-1.31.57C17,37.25,17.42,36.91,17.63,36.91ZM14.42,45c-.38-.33-.67-1.23.12-3.7a10.29,10.29,0,0,1,.65-1.55h0a5.58,5.58,0,0,1,1.15-.95,8.22,8.22,0,0,1,1.37-.68,34.76,34.76,0,0,1-.87,4c-.27,1-.59,2-.91,2.93A1.68,1.68,0,0,1,14.42,45ZM20,52.47c0,.09-.08.18-.11.27a1.56,1.56,0,0,1-.45-1,.37.37,0,0,1,.21,0,1.62,1.62,0,0,1,.59.12C20.16,52,20.07,52.24,20,52.47Zm-1.15-1.22a1.08,1.08,0,0,0-.11.89,2.74,2.74,0,0,0,.82,1.33,11.07,11.07,0,0,1-2.61,3.84c-.34-.4,0-3.62,1.61-6.58a10.29,10.29,0,0,1,2.53-3.31,15.36,15.36,0,0,1-.62,3.66A1.46,1.46,0,0,0,18.84,51.25Zm1.66,1.93.18-.44.21-.54a2.33,2.33,0,0,1,.54,1A1.9,1.9,0,0,1,20.5,53.18ZM22.15,53a2.88,2.88,0,0,0-1-1.56h0a16,16,0,0,0,.7-4.54A6.58,6.58,0,0,1,23,46.34c1.42-.51,2.38-.53,2.86-.08s.47,1.56,0,2.91A7,7,0,0,1,22.15,53ZM39.4,48.52c-.32-.17-.54-.38-.57-.61a.83.83,0,0,1,.21-.63A3.08,3.08,0,0,1,41,46.17a3.43,3.43,0,0,1,3,1.45,4.74,4.74,0,0,1-.8.6,4,4,0,0,1-2.29.71l-.22,0c.52-1.56.35-1.63.09-1.74S40.32,47,39.4,48.52Zm5.11,3.88c-1.12,3.16-4.38,4.13-5.73,4.4-.86.18-1.07.06-1.07.06-.24-.24.27-1.4.85-2.74.38-.88.86-2,1.37-3.3l.45-1.19.42,0a4.79,4.79,0,0,0,2.73-.82,5.87,5.87,0,0,0,.85-.62l.15.3A5,5,0,0,1,44.51,52.4Z"/></g></svg>